<svg width="427" height="427" xmlns="http://www.w3.org/2000/svg">

 <g>
  <title>background</title>
  <rect fill="none" id="canvas_background" height="429" width="429" y="-1" x="-1"/>
 </g>
 <g>
  <title>Layer 1</title>
  <g id="freepik--background-complete--inject-56">
   <rect x="-35" id="svg_1" fill="#ebebeb" height="0.25" width="500" y="345.4"/>
   <rect id="svg_2" fill="#ebebeb" height="0.25" width="33.12" y="353.34" x="293.88"/>
   <rect id="svg_3" fill="#ebebeb" height="0.25" width="41.14" y="353.47" x="364.78"/>
   <rect id="svg_4" fill="#ebebeb" height="0.25" width="19.19" y="360" x="321.76"/>
   <rect id="svg_5" fill="#ebebeb" height="0.25" width="51.67" y="358.11" x="139"/>
   <rect id="svg_6" fill="#ebebeb" height="0.25" width="34.39" y="358.11" x="95.71"/>
   <rect id="svg_7" fill="#ebebeb" height="0.25" width="46.84" y="353.89" x="28.29"/>
   <path id="svg_8" fill="#ebebeb" d="m202,300.8l-193.09,0a5.71,5.71 0 0 1 -5.7,-5.71l0,-271.43a5.71,5.71 0 0 1 5.7,-5.66l193.09,0a5.71,5.71 0 0 1 5.71,5.71l0,271.38a5.71,5.71 0 0 1 -5.71,5.71zm-193.09,-282.6a5.46,5.46 0 0 0 -5.45,5.46l0,271.43a5.46,5.46 0 0 0 5.45,5.46l193.09,0a5.47,5.47 0 0 0 5.46,-5.46l0,-271.43a5.47,5.47 0 0 0 -5.46,-5.46l-193.09,0z"/>
   <path id="svg_9" fill="#ebebeb" d="m418.31,300.8l-193.1,0a5.72,5.72 0 0 1 -5.71,-5.71l0,-271.43a5.72,5.72 0 0 1 5.71,-5.66l193.1,0a5.71,5.71 0 0 1 5.69,5.66l0,271.43a5.71,5.71 0 0 1 -5.69,5.71zm-193.1,-282.6a5.47,5.47 0 0 0 -5.46,5.46l0,271.43a5.47,5.47 0 0 0 5.46,5.46l193.1,0a5.47,5.47 0 0 0 5.46,-5.46l0,-271.43a5.47,5.47 0 0 0 -5.46,-5.46l-193.1,0z"/>
   <rect id="svg_10" fill="#f5f5f5" height="271.74" width="139.29" y="1.14" x="-0.22"/>
   <polygon id="svg_11" fill="#ebebeb" points="67,272.8900146484375 30.669998168945312,272.8900146484375 30.669998168945312,110.52999877929688 67,98.66000366210938 67,272.8900146484375 "/>
   <polygon id="svg_12" fill="#e6e6e6" points="97.33000183105469,272.8900146484375 61,272.8900146484375 61,149.4199981689453 97.33000183105469,137.5500030517578 97.33000183105469,272.8900146484375 "/>
   <polygon id="svg_13" fill="#e6e6e6" points="92.98999786376953,145.97000122070312 84.31999969482422,145.97000122070312 84.31999969482422,116.50999450683594 92.98999786376953,113.67999267578125 92.98999786376953,145.97000122070312 "/>
   <rect id="svg_14" fill="#f5f5f5" height="271.74" width="139.29" y="1.14" x="145.06"/>
   <rect id="svg_15" fill="#e6e6e6" height="96.52" width="40.89" y="176.37" x="145.06"/>
   <rect id="svg_16" fill="#f5f5f5" height="271.74" width="139.29" y="1.14" x="290.94"/>
   <polygon id="svg_17" fill="#ebebeb" points="399.8900146484375,272.8900146484375 370.3299865722656,272.8900146484375 370.3299865722656,77.5199966430664 399.8900146484375,65.63999938964844 399.8900146484375,272.8900146484375 "/>
   <polygon id="svg_18" fill="#e6e6e6" points="430.2200012207031,272.8900146484375 393.8900146484375,272.8900146484375 393.8900146484375,149.4199981689453 430.2200012207031,137.5500030517578 430.2200012207031,272.8900146484375 "/>
   <polygon id="svg_19" fill="#e6e6e6" points="300,272.8800048828125 372.6600036621094,272.8800048828125 372.6600036621094,176.88999938964844 300,167.66000366210938 300,272.8800048828125 "/>
   <polygon id="svg_20" fill="#e6e6e6" points="425.8900146484375,145.97000122070312 421.54998779296875,145.97000122070312 421.54998779296875,116.50999450683594 425.8900146484375,113.67999267578125 425.8900146484375,145.97000122070312 "/>
   <polygon id="svg_21" fill="#e6e6e6" points="411.7099914550781,153.05999755859375 407.3800048828125,153.05999755859375 407.3800048828125,123.60000610351562 411.7099914550781,120.75999450683594 411.7099914550781,153.05999755859375 "/>
   <path id="svg_22" fill="#ebebeb" d="m21.56,192.22l16.55,0a0,0 0 0 1 0,0l0,80.67a0,0 0 0 1 0,0l-27.33,0a0,0 0 0 1 0,0l0,-69.89a10.78,10.78 0 0 1 10.78,-10.78z"/>
   <rect id="svg_23" fill="#ebebeb" height="77.84" width="36.31" y="195.05" x="102.76"/>
   <polygon id="svg_24" fill="#ebebeb" points="222.260009765625,207.11000061035156 185.9499969482422,195.0500030517578 185.9499969482422,272.8900146484375 222.260009765625,272.8900146484375 222.260009765625,207.11000061035156 "/>
   <polygon id="svg_25" fill="#e6e6e6" points="236.010009765625,207.11000061035156 199.6999969482422,195.0500030517578 199.6999969482422,272.8900146484375 236.010009765625,272.8900146484375 236.010009765625,207.11000061035156 "/>
   <polygon id="svg_26" fill="#f0f0f0" points="236.010009765625,194.75 272.32000732421875,182.69000244140625 272.32000732421875,272.8900146484375 236.010009765625,272.8900146484375 236.010009765625,194.75 "/>
   <polygon id="svg_27" fill="#fff" opacity="0.5" points="75.8499984741211,272.8800048828125 38.41999816894531,272.8800048828125 115.57000732421875,1.1399993896484375 153,1.1399993896484375 75.8499984741211,272.8800048828125 "/>
   <polygon id="svg_28" fill="#fff" opacity="0.5" points="188.0500030517578,272.8800048828125 150.6199951171875,272.8800048828125 227.760009765625,1.1399993896484375 265.20001220703125,1.1399993896484375 188.0500030517578,272.8800048828125 "/>
   <polygon id="svg_29" fill="#fff" opacity="0.5" points="234.89999389648438,272.8800048828125 197.47000122070312,272.8800048828125 274.6199951171875,1.1399993896484375 312.04998779296875,1.1399993896484375 234.89999389648438,272.8800048828125 "/>
   <polygon id="svg_30" fill="#fff" opacity="0.5" points="325,272.8800048828125 306.2900085449219,272.8800048828125 383.44000244140625,1.1399993896484375 402.1499938964844,1.1399993896484375 325,272.8800048828125 "/>
   <path id="svg_31" fill="#fafafa" d="m75.84,296c10.8,-57.92 39.26,-85.1 63.48,-98.94c-23.2,21.94 -38.98,97.85 -63.48,98.94z"/>
   <path id="svg_32" fill="#fafafa" d="m52.17,291.44c-8,-43.66 -27.23,-60.74 -43.51,-68c15.71,13.74 27.21,70.75 43.51,68z"/>
   <path id="svg_33" fill="#fafafa" d="m66.15,303c-3.08,-62.8 -27,-90.37 -48.51,-103.61c19.52,22.26 25.1,104.46 48.51,103.61z"/>
   <path id="svg_34" fill="#fafafa" d="m66.15,297.61c5,-63.1 31.68,-92.63 55.4,-107.62c-21.78,23.84 -30,106.56 -55.4,107.62z"/>
   <path id="svg_35" fill="#fafafa" d="m70.09,307.48c8,-64.82 -9.69,-103.88 -27.63,-127.36c14.54,31.62 5.46,117.2 27.63,127.36z"/>
   <path id="svg_36" fill="#fafafa" d="m95,287.76c20.19,-37.76 45.52,-46.76 65,-47.68c-20.61,7.16 -48.22,56.1 -65,47.68z"/>
   <path id="svg_37" fill="#fafafa" d="m90.81,289.19c12.73,-42.79 36.83,-61 56.63,-69.42c-19.63,14.66 -37.56,70.62 -56.63,69.42z"/>
   <path id="svg_38" fill="#fafafa" d="m68.47,307.69c21.76,-67.11 11.93,-108.49 -1.41,-133.69c8.13,33.53 -19.06,122.2 1.41,133.69z"/>
   <path id="svg_39" fill="#f5f5f5" d="m31.55,283.56l0,42.22c0,10.79 19.47,19.62 43.28,19.62l0,0c23.8,0 43.28,-8.83 43.28,-19.62l0,-42.22l-86.56,0z"/>
   <path id="svg_40" fill="#e0e0e0" d="m365,311.46c-2.39,-39.83 -19.54,-58.52 -34.93,-68c14.04,15.05 18.28,67.27 34.93,68z"/>
   <path id="svg_41" fill="#e0e0e0" d="m381.64,308.35c9.22,-30 23.9,-41.78 35.68,-46.78c-11.95,9.43 -24.75,48.66 -35.68,46.78z"/>
   <path id="svg_42" fill="#e0e0e0" d="m371.07,316.3c7.53,-43.18 26.29,-62.14 42.17,-71.24c-15.24,15.29 -26.24,71.81 -42.17,71.24z"/>
   <path id="svg_43" fill="#e0e0e0" d="m371.54,312.59c2,-43.4 -13.7,-63.7 -28.65,-74c12.86,16.41 11.34,73.27 28.65,74z"/>
   <path id="svg_44" fill="#e0e0e0" d="m368,319.37c0.11,-44.57 15.61,-71.43 29.93,-87.58c-12.68,21.75 -13.88,80.59 -29.93,87.58z"/>
   <path id="svg_45" fill="#e0e0e0" d="m352.65,305.81c-10.59,-26 -27.16,-32.16 -40.42,-32.79c13.49,4.92 28.18,38.58 40.42,32.79z"/>
   <path id="svg_46" fill="#e0e0e0" d="m355.37,306.8c-5,-29.43 -19.95,-41.92 -32.78,-47.74c12.17,10.08 19.62,48.56 32.78,47.74z"/>
   <path id="svg_47" fill="#e0e0e0" d="m369.08,319.52c-9.11,-46.15 1.2,-74.6 12.51,-91.92c-8.46,23.04 2.47,84.01 -12.51,91.92z"/>
   <path id="svg_48" fill="#f5f5f5" d="m394.26,303l0,29c0,7.41 -13.37,13.47 -29.71,13.47l0,0c-16.34,0 -29.7,-6.06 -29.7,-13.47l0,-29l59.41,0z"/>
  </g>
  <g id="freepik--Shadow--inject-56">
   <ellipse fill="#f5f5f5" ry="11.32" rx="193.89" cy="379.24" cx="215" id="freepik--path--inject-56"/>
  </g>
  <g id="freepik--Contract--inject-56">
   <path id="svg_49" fill="#fff" d="m232,91.89l0,13.11a3.5,3.5 0 0 1 -3.49,3.49l-32.17,0a3.5,3.5 0 0 1 -3.49,-3.49l0,-47.53a3.5,3.5 0 0 1 3.49,-3.47l32.12,0a3.5,3.5 0 0 1 3.54,3.47l0,20.74"/>
   <path id="svg_50" fill="#5A4384" d="m228.46,109.06l-32.12,0a4,4 0 0 1 -4,-4l0,-47.59a4,4 0 0 1 4,-4l32.12,0a4,4 0 0 1 4,4l0,20.74l-1.06,0l0,-20.74a3,3 0 0 0 -3,-3l-32.06,0a3,3 0 0 0 -3,3l0,47.53a3,3 0 0 0 3,3l32.12,0a3,3 0 0 0 3,-3l0,-13.11l1.06,0l0,13.11a4,4 0 0 1 -4.06,4.06z"/>
   <path id="svg_51" fill="#e0e0e0" d="m210,102a18.47,18.47 0 0 1 2.05,-1.11a10,10 0 0 1 1,-0.39a3.75,3.75 0 0 1 1.18,-0.27l-0.41,-0.23c-0.07,-0.11 -0.11,0.17 -0.13,0.24l-0.14,0.35a3.09,3.09 0 0 0 -0.25,0.78a0.62,0.62 0 0 0 0.65,0.78a8.19,8.19 0 0 0 2.95,-1.15l-0.37,0c0.11,0 0.24,0.15 0.35,0.19a1.71,1.71 0 0 0 0.51,0.1c0.39,0 0.78,-0.06 1.17,0c0.61,0.06 0.6,-0.89 0,-0.94c-0.41,0 -0.84,0.09 -1.24,0s-0.52,-0.37 -0.94,-0.18s-0.76,0.44 -1.17,0.61a5.71,5.71 0 0 1 -0.58,0.21l-0.38,0.11c-0.11,0 -0.31,0 -0.15,0.16l0.14,0.33c0,-0.64 0.68,-1.24 0.5,-1.9s-1,-0.37 -1.49,-0.25a14,14 0 0 0 -3.75,1.72a0.47,0.47 0 0 0 0.47,0.82l0.03,0.02z"/>
   <rect id="svg_52" fill="#e0e0e0" height="1.05" width="31.65" y="61.09" x="196.57"/>
   <rect id="svg_53" fill="#e0e0e0" height="1.05" width="28.07" y="68.54" x="196.57"/>
   <rect id="svg_54" fill="#e0e0e0" height="1.05" width="31.65" y="76" x="196.57"/>
   <rect id="svg_55" fill="#e0e0e0" height="1.05" width="8.7" y="83.46" x="196.57"/>
   <rect id="svg_56" fill="#e0e0e0" height="1.05" width="11.57" y="83.46" x="208.92"/>
   <rect id="svg_57" fill="#e0e0e0" height="1.05" width="31.65" y="90.91" x="196.57"/>
   <path id="svg_58" fill="#5A4384" d="m200.92,104.23a4.88,4.88 0 1 1 4.88,-4.88a4.88,4.88 0 0 1 -4.88,4.88zm0,-8.7a3.83,3.83 0 1 0 3.83,3.82a3.83,3.83 0 0 0 -3.83,-3.82z"/>
   <path id="svg_59" fill="#5A4384" d="m203.8,99.35a2.88,2.88 0 1 1 -2.88,-2.87a2.88,2.88 0 0 1 2.88,2.87z"/>
   <path id="svg_60" fill="#5A4384" d="m220.08,98.49a8.88,8.88 0 0 1 1.42,-3.83c0.72,-1.09 1.59,-2 2.39,-3.07c1.61,-2 3.28,-4 5,-6c3.38,-3.93 6.81,-7.82 10.55,-11.47a0.54,0.54 0 0 1 0.83,0.66c-2.7,4.47 -5.71,8.7 -8.77,12.89c-1.54,2.08 -3.1,4.15 -4.7,6.19c-0.81,1 -1.55,2.08 -2.45,3a8.86,8.86 0 0 1 -3.4,2.26a0.64,0.64 0 0 1 -0.8,-0.38a0.67,0.67 0 0 1 -0.07,-0.25z"/>
   <rect id="svg_61" fill="#5A4384" transform="rotate(-41.09, -86.74, 173.3)" height="1.05" width="8.72" y="346.96" x="163.63"/>
   <rect id="svg_62" fill="#5A4384" transform="rotate(-77.37, -4.76, 337.49)" height="1.05" width="12.71" y="505.31999" x="237.87"/>
   <rect id="svg_63" fill="#5A4384" transform="rotate(-43.12, -88.59, 175.03)" height="5.35" width="1.05" y="346.18" x="152.38"/>
  </g>
  <g id="freepik--character-2--inject-56">
   <polygon id="svg_64" fill="#7f3e3b" points="282.05999755859375,371.2900085449219 273.54998779296875,371.2900085449219 272.510009765625,351.5899963378906 281.010009765625,351.5899963378906 282.05999755859375,371.2900085449219 "/>
   <polygon id="svg_65" fill="#7f3e3b" points="324.9599914550781,371.2900085449219 316.45001220703125,371.2900085449219 313.1199951171875,351.5899963378906 321.6199951171875,351.5899963378906 324.9599914550781,371.2900085449219 "/>
   <path id="svg_66" fill="#263238" d="m315.9,370.3l9.55,0a0.7,0.7 0 0 1 0.7,0.58l1.32,7.56a1.33,1.33 0 0 1 -1.32,1.52c-3.33,-0.06 -4.94,-0.26 -9.15,-0.26c-2.58,0 -9.55,0.27 -13.12,0.27s-3.87,-3.53 -2.4,-3.85c6.63,-1.43 10.82,-3.41 13,-5.29a2.17,2.17 0 0 1 1.42,-0.53z"/>
   <path id="svg_67" fill="#263238" d="m273.34,370.3l9.28,0a0.7,0.7 0 0 1 0.7,0.58l1.32,7.56a1.31,1.31 0 0 1 -1.3,1.52c-3.34,-0.06 -8.18,-0.26 -12.39,-0.26c-4.92,0 -6.17,0.27 -11.95,0.27c-3.49,0 -4.29,-3.53 -2.81,-3.85c6.72,-1.45 9.15,-1.61 15.06,-5.15a4.1,4.1 0 0 1 2.09,-0.67z"/>
   <path id="svg_68" fill="#7f3e3b" d="m273.07,106.41l-11.62,-3.41s-11.84,28.13 -15.85,30c-5.45,2.5 -20,10.17 -26.16,13.79c-0.42,1.39 -0.43,5.2 0.24,6.3c10.09,-0.8 30.79,-7.65 34.77,-11.47c9.08,-8.72 18.62,-35.21 18.62,-35.21z"/>
   <path id="svg_69" fill="#5A4384" d="m276.59,101.1c3.3,7.36 -19.36,39.64 -19.36,39.64l-11,-11.42s9.73,-24.43 15,-33.8c5.38,-9.63 11.77,-2.52 15.36,5.58z"/>
   <path id="svg_70" fill="#fff" opacity="0.4" d="m276.59,101.1c3.3,7.36 -19.36,39.64 -19.36,39.64l-11,-11.42s9.73,-24.43 15,-33.8c5.38,-9.63 11.77,-2.52 15.36,5.58z"/>
   <path id="svg_71" fill="#5A4384" d="m245.43,128.31c-0.69,0.41 -2.17,3.1 -2.5,4.44s7.41,11.68 10.42,11.26s6.45,-3.35 7.07,-4.93s-13.54,-11.62 -14.99,-10.77z"/>
   <path id="svg_72" fill="#7f3e3b" d="m220.73,146.15l-7,-1.28l0.42,10s2.46,1 7.76,-2.28l-1.18,-6.44z"/>
   <polygon id="svg_73" fill="#7f3e3b" points="205.27000427246094,148.1999969482422 206.5500030517578,154.35000610351562 214.10000610351562,154.91000366210938 213.67999267578125,144.8800048828125 205.27000427246094,148.1999969482422 "/>
   <polygon id="svg_74" opacity="0.2" points="272.510009765625,351.6000061035156 273.04998779296875,361.75 281.54998779296875,361.75 281.0199890136719,351.6000061035156 272.510009765625,351.6000061035156 "/>
   <polygon id="svg_75" opacity="0.2" points="321.6300048828125,351.6000061035156 313.1199951171875,351.6000061035156 314.8399963378906,361.75 323.3500061035156,361.75 321.6300048828125,351.6000061035156 "/>
   <path id="svg_76" fill="#5A4384" d="m265.78,91.06s-11.35,29.22 -4.09,77.05l45.49,0c0.64,-7 -2,-44.59 6.27,-77.49a116.05,116.05 0 0 0 -15.14,-1.93a168.51,168.51 0 0 0 -19.34,0a87.78,87.78 0 0 0 -13.19,2.37z"/>
   <path id="svg_77" opacity="0.2" d="m265.78,91.06s-11.35,29.22 -4.09,77.05l45.49,0c0.64,-7 -2,-44.59 6.27,-77.49a116.05,116.05 0 0 0 -15.14,-1.93a168.51,168.51 0 0 0 -19.34,0a87.78,87.78 0 0 0 -13.19,2.37z"/>
   <path id="svg_78" opacity="0.2" d="m303.18,98.74c-1,5.42 0.07,18.37 4.52,33.34a218.94,218.94 0 0 1 5,-38.19l0,-0.06c-3.02,-0.31 -8.55,-0.17 -9.52,4.91z"/>
   <path id="svg_79" fill="#7f3e3b" d="m296.65,70.61c-1.52,6.22 -2.49,13.93 1.66,18.08c0,0 -2.8,6.32 -14.36,6.32c-10.57,0 -5,-6.32 -5,-6.32c7,-1.65 7.07,-10.23 6.09,-15.07l11.61,-3.01z"/>
   <path id="svg_80" fill="#5A4384" d="m284,95c6.81,2.13 8.16,4.31 8.16,4.31s8.49,-3.45 8.17,-10.93a17.11,17.11 0 0 0 -3.32,-1.92s-0.72,5.54 -13.01,8.54z"/>
   <path id="svg_81" fill="#5A4384" d="m284,95c-3.82,0.36 -7,3.63 -7,3.63s-2.43,-2.55 -0.1,-9.95c0,0 2.27,-0.77 4.15,-1.17c-0.05,0.01 -1.58,5.89 2.95,7.49z"/>
   <path id="svg_82" opacity="0.2" d="m285.06,73.63c0.58,2.83 0.8,7 -0.54,10.21a11.44,11.44 0 0 0 3.15,-1c4,-1.84 6.06,-4.75 8.28,-9c0.2,-1.11 0.44,-2.19 0.7,-3.23l-11.59,3.02z"/>
   <path id="svg_83" fill="#263238" d="m283.71,50.73c-2.72,0.89 -8.8,6.11 -3,8.74s7.74,-10.28 3,-8.74z"/>
   <path id="svg_84" fill="#7f3e3b" d="m302.06,63c-2.65,8.16 -3.79,13 -9,16.4c-7.83,5 -16.88,-1 -16.67,-9.62c0.18,-7.81 4.48,-19.84 13.29,-21.39s15.03,6.48 12.38,14.61z"/>
   <path id="svg_85" fill="#263238" d="m289.28,54.07c-4.5,0.76 -8.25,0.52 -9.61,-3.22s4.83,-7.66 9.1,-5.9c3.15,-3.28 11.75,-0.76 12.86,2.39c5,-0.32 9.73,5.44 6.34,8.39a5.94,5.94 0 0 1 1,9.31c1.46,4.34 -3.8,8.67 -7.95,6.91c-4.09,-1.22 -6.32,-0.22 -6.89,-2.86s0.87,-5.19 4.35,-5.7c-1.76,-2.1 -2.19,-5.42 -1,-6.85c-4.21,1.91 -7.66,-0.49 -8.2,-2.47z"/>
   <path id="svg_86" fill="#263238" d="m283.88,71.66a6.06,6.06 0 0 0 4.43,-1.42a0.21,0.21 0 0 0 0,-0.29a0.19,0.19 0 0 0 -0.28,0a5.75,5.75 0 0 1 -4.86,1.2a0.21,0.21 0 0 0 -0.24,0.16a0.18,0.18 0 0 0 0.15,0.23a8,8 0 0 0 0.8,0.12z"/>
   <path id="svg_87" fill="#7f3e3b" d="m302.53,74.27a8.37,8.37 0 0 1 -6,1.73c-2.79,-0.31 -3,-3.06 -1.25,-5.14c1.58,-1.88 4.94,-4 7.27,-2.62s2.07,4.37 -0.02,6.03z"/>
   <path id="svg_88" fill="#5A4384" d="m291.59,168.11s-1.16,10.7 -2.64,25.19c-1.7,16.43 -3.81,37.76 -5.15,54c0,0.08 0,0.15 0,0.22c-0.26,3.09 -0.49,6 -0.68,8.62c-1.9,26.51 1.5,103.63 1.5,103.63l-14.42,0s-13.28,-78.7 -12.95,-105.68c0.31,-25.93 4.43,-86 4.43,-86l29.91,0.02z"/>
   <path id="svg_89" fill="#263238" d="m285.8,354.14c0.07,0 -0.25,5.94 -0.25,5.94l-16.61,0l-0.42,-6.52l17.28,0.58z"/>
   <path id="svg_90" opacity="0.2" d="m289,193.3c-1.7,16.43 -3.81,37.76 -5.15,54c0,0.08 0,0.15 0,0.22c-3.17,-15.41 -4.16,-34.57 -2.93,-66.12l8.08,11.9z"/>
   <path id="svg_91" fill="#5A4384" d="m277.82,168.11s6.64,61.46 10.77,85.81c4.53,26.67 22.41,105.86 22.41,105.86l15.58,0s-10.5,-77 -12.56,-103.44c-2.22,-28.66 -6.81,-88.23 -6.81,-88.23l-29.39,0z"/>
   <path id="svg_92" fill="#263238" d="m326.77,354.5c0.07,0 0.54,5.58 0.54,5.58l-17.12,0l-1.25,-6.23l17.83,0.65z"/>
   <path id="svg_93" fill="#263238" d="m287.93,62.64c-0.18,0.67 -0.67,1.14 -1.1,1s-0.64,-0.72 -0.47,-1.39s0.67,-1.14 1.1,-1s0.64,0.75 0.47,1.39z"/>
   <path id="svg_94" fill="#263238" d="m280.45,61c-0.18,0.67 -0.67,1.14 -1.1,1s-0.64,-0.71 -0.47,-1.39s0.67,-1.14 1.1,-1s0.64,0.72 0.47,1.39z"/>
   <path id="svg_95" fill="#630f0f" d="m283.94,61.86a26.57,26.57 0 0 1 -4.65,5.07c0.88,1.36 3,1.29 3,1.29l1.65,-6.36z"/>
   <path id="svg_96" fill="#263238" d="m292,60.68a0.41,0.41 0 0 1 -0.27,-0.23a3,3 0 0 0 -2.14,-1.86a0.38,0.38 0 0 1 -0.32,-0.46a0.42,0.42 0 0 1 0.47,-0.34a3.74,3.74 0 0 1 2.74,2.32a0.43,0.43 0 0 1 -0.22,0.54a0.4,0.4 0 0 1 -0.26,0.03z"/>
   <path id="svg_97" fill="#263238" d="m279,57.58a0.6,0.6 0 0 1 -0.15,-0.09a0.4,0.4 0 0 1 0,-0.57a4.08,4.08 0 0 1 3.45,-1.4a0.38,0.38 0 0 1 0.32,0.46a0.43,0.43 0 0 1 -0.47,0.34l0,0a3.27,3.27 0 0 0 -2.73,1.14a0.44,0.44 0 0 1 -0.42,0.12z"/>
   <path id="svg_98" fill="#7f3e3b" d="m318.49,102.23l-10.74,6.5s12,26 11.93,30.37c-0.2,8.16 3.31,25.85 2.36,35.17c1.32,0.47 5,0.58 6.16,-0.07c2.13,-8.43 5.08,-30.58 4.23,-36.13c-1.86,-12.07 -13.94,-35.84 -13.94,-35.84z"/>
   <path id="svg_99" fill="#5A4384" d="m313.45,90.62c8,1.17 19.4,41.77 19.4,41.77l-14.8,5.61s-12.89,-22 -16.05,-31.89c-3.4,-10.32 2.88,-16.75 11.45,-15.49z"/>
   <path id="svg_100" fill="#fff" opacity="0.4" d="m313.45,90.62c8,1.17 19.4,41.77 19.4,41.77l-14.8,5.61s-12.89,-22 -16.05,-31.89c-3.4,-10.32 2.88,-16.75 11.45,-15.49z"/>
   <path id="svg_101" fill="#5A4384" d="m313,371.79a2.41,2.41 0 0 1 -1.61,-0.44a1.13,1.13 0 0 1 -0.37,-1.06a0.68,0.68 0 0 1 0.37,-0.57c1,-0.48 3.63,1.2 3.93,1.4a0.18,0.18 0 0 1 0.08,0.2a0.22,0.22 0 0 1 -0.16,0.16a9.76,9.76 0 0 1 -2.24,0.31zm-1.17,-1.79a0.53,0.53 0 0 0 -0.26,0.05a0.26,0.26 0 0 0 -0.14,0.23a0.81,0.81 0 0 0 0.24,0.74c0.44,0.39 1.55,0.44 3,0.15a7.66,7.66 0 0 0 -2.84,-1.17z"/>
   <path id="svg_102" fill="#5A4384" d="m315.2,371.49a0.16,0.16 0 0 1 -0.09,0c-0.86,-0.47 -2.47,-2.34 -2.24,-3.29a0.69,0.69 0 0 1 0.66,-0.52a1.09,1.09 0 0 1 0.85,0.25c0.95,0.81 1,3.27 1,3.37a0.23,0.23 0 0 1 -0.1,0.19a0.27,0.27 0 0 1 -0.08,0zm-1.55,-3.49l-0.09,0c-0.26,0 -0.29,0.15 -0.3,0.2c-0.14,0.56 0.88,2 1.72,2.63a4.55,4.55 0 0 0 -0.87,-2.66a0.69,0.69 0 0 0 -0.46,-0.17z"/>
   <path id="svg_103" fill="#5A4384" d="m269.73,371.79a3.15,3.15 0 0 1 -2.05,-0.52a1.13,1.13 0 0 1 -0.33,-1a0.7,0.7 0 0 1 0.36,-0.54c1.06,-0.58 4.4,1.16 4.78,1.36a0.19,0.19 0 0 1 0.09,0.21a0.21,0.21 0 0 1 -0.17,0.17a14.91,14.91 0 0 1 -2.68,0.32zm-1.46,-1.79a0.83,0.83 0 0 0 -0.38,0.07a0.29,0.29 0 0 0 -0.14,0.22a0.72,0.72 0 0 0 0.22,0.65c0.5,0.46 1.89,0.54 3.79,0.23a10.65,10.65 0 0 0 -3.49,-1.17z"/>
   <path id="svg_104" fill="#5A4384" d="m272.38,371.49l-0.09,0c-1,-0.46 -3,-2.3 -2.75,-3.26c0,-0.23 0.23,-0.51 0.78,-0.56a1.39,1.39 0 0 1 1.1,0.34c1,0.89 1.16,3.18 1.17,3.28a0.22,0.22 0 0 1 -0.1,0.18a0.15,0.15 0 0 1 -0.11,0.02zm-1.92,-3.49l-0.12,0c-0.36,0 -0.39,0.18 -0.4,0.22c-0.12,0.58 1.19,2 2.21,2.65a4.58,4.58 0 0 0 -1,-2.62a1,1 0 0 0 -0.69,-0.25z"/>
   <rect id="svg_105" fill="#263238" transform="rotate(-7.43, -63.49, 11.61)" rx="4.09" height="41.84" width="59.73" y="234.22" x="266.46"/>
   <rect id="svg_106" opacity="0.3" transform="rotate(-7.43, -63.49, 11.61)" rx="4.09" height="41.84" width="59.73" y="234.22" x="266.46"/>
   <path id="svg_107" fill="#263238" d="m319.69,193.52a3.85,3.85 0 0 1 -2.36,-0.81a3.92,3.92 0 0 1 -1.49,-2.58l-0.9,-6.94a3.88,3.88 0 0 1 3.35,-4.35l11.55,-1.51a3.89,3.89 0 0 1 4.36,3.35l0.91,6.94a3.91,3.91 0 0 1 -3.35,4.36l0,0l-11.56,1.5a4.38,4.38 0 0 1 -0.51,0.04zm10.66,-14l-0.21,0l-11.56,1.51a1.62,1.62 0 0 0 -1.4,1.82l0.9,6.94a1.64,1.64 0 0 0 0.63,1.08a1.61,1.61 0 0 0 1.2,0.32l11.55,-1.5a1.65,1.65 0 0 0 1.41,-1.83l-0.87,-6.86a1.62,1.62 0 0 0 -0.62,-1.08a1.65,1.65 0 0 0 -1.03,-0.37l0,-0.03zm1.26,11.31l0,0z"/>
   <rect id="svg_108" fill="#263238" transform="rotate(-7.43, -63.36, 12.23)" rx="4.09" height="41.84" width="59.73" y="234.21" x="271.45"/>
   <path id="svg_109" fill="#7f3e3b" d="m322.52,172.87l-3.26,6.35l9.56,0.44a7.62,7.62 0 0 0 -1.24,-8.58l-5.06,1.79z"/>
   <path id="svg_110" fill="#7f3e3b" d="m322.91,184.14l5.7,-0.78l0.21,-3.7l-9.56,-0.44l0.15,2.07a3.09,3.09 0 0 0 3.5,2.85z"/>
   <path id="svg_111" fill="#5A4384" d="m315.82,135.69c-0.15,0.78 0.91,3.67 1.69,4.79s13.68,2.11 15.34,-0.43s1.73,-7.06 0.94,-8.57s-17.66,2.52 -17.97,4.21z"/>
  </g>
  <g id="freepik--character-1--inject-56">
   <path id="svg_112" fill="#263238" d="m127.38,104.48c-1.61,2.11 -3.36,4.42 -5,6.69s-3.22,4.58 -4.73,6.92a89.4,89.4 0 0 0 -7.81,14.21c-0.25,0.59 -0.48,1.18 -0.68,1.77q-0.16,0.44 -0.3,0.87l-0.14,0.44l-0.06,0.21l0,0.06a6.28,6.28 0 0 0 -0.11,2.34a38.53,38.53 0 0 0 1.77,7.39c1.71,5.17 4,10.5 6.25,15.67l-5.11,3.24a85.71,85.71 0 0 1 -9.9,-15.29a40.77,40.77 0 0 1 -3.43,-9.25a16.22,16.22 0 0 1 -0.24,-6.34l0.08,-0.48l0.08,-0.32l0.15,-0.62c0.09,-0.41 0.19,-0.82 0.31,-1.22c0.22,-0.81 0.46,-1.59 0.72,-2.37a85.52,85.52 0 0 1 8.14,-16.81c1.6,-2.59 3.24,-5.13 5,-7.58s3.5,-4.83 5.53,-7.27l9.48,7.74z"/>
   <path id="svg_113" fill="#ffc3bd" d="m115.22,159.2l5.26,2.79l-6,7.09s-3.78,-2.56 -4,-6.46l4.74,-3.42z"/>
   <polygon id="svg_114" fill="#ffc3bd" points="127.55999755859375,166.36000061035156 121.08000183105469,171.50999450683594 114.42999267578125,169.0800018310547 120.47999572753906,161.99000549316406 127.55999755859375,166.36000061035156 "/>
   <path id="svg_115" fill="#ffc3bd" d="m206.18,144l6.22,3.21l-0.55,2.24l-5,5s-3.6,-2.8 -3.52,-6.7l2.85,-3.75z"/>
   <polygon id="svg_116" fill="#ffc3bd" points="207.0800018310547,144.8800048828125 212.77999877929688,143.80999755859375 216.44000244140625,145.3699951171875 214,145.77999877929688 212.39999389648438,147.22999572753906 207.0800018310547,144.8800048828125 "/>
   <path id="svg_117" fill="#ffc3bd" d="m218.63,155.19l-6.18,1.33a3,3 0 0 1 -1.92,-0.23l-3.71,-1.8l5,-5l3.31,-1l4.14,4.75a1.22,1.22 0 0 1 -0.64,1.95z"/>
   <path id="svg_118" fill="#263238" d="m150.17,63.94c0.14,0.67 0.6,1.14 1,1s0.68,-0.71 0.55,-1.38s-0.61,-1.14 -1,-1s-0.72,0.71 -0.55,1.38z"/>
   <path id="svg_119" fill="#ff5652" d="m150.71,65.09a24.54,24.54 0 0 0 4.37,5.09c-1,1.35 -3.08,1.25 -3.08,1.25l-1.29,-6.34z"/>
   <path id="svg_120" fill="#263238" d="m147,60.71a0.43,0.43 0 0 1 -0.27,-0.11a0.41,0.41 0 0 1 0,-0.57a4,4 0 0 1 3.42,-1.33a0.41,0.41 0 0 1 -0.13,0.8l0,0a3.19,3.19 0 0 0 -2.7,1.08a0.39,0.39 0 0 1 -0.32,0.13z"/>
   <path id="svg_121" fill="#ffc3bd" d="m132,75.79c1.16,5.9 1.85,14.07 -2.27,18c0,0 1.61,6 12.57,6c12.06,0 5.8,-5.26 5.8,-5.26c-5,-1.55 -5,-7.26 -3.82,-11.84l-12.28,-6.9z"/>
   <path id="svg_122" fill="#5A4384" d="m128,97.83c-1,-1.58 -0.67,-6.37 0.53,-7.15c1.92,-1.26 9.84,-1.12 20.35,1.95c-1.42,4.58 0.89,7.16 0.89,7.16l-21.77,-1.96z"/>
   <path id="svg_123" opacity="0.2" d="m119.2,106.32c-3.75,3.7 -4.84,11.28 -4.43,16.45c0.92,-1.57 1.9,-3.14 2.91,-4.67c1.51,-2.35 3.12,-4.64 4.74,-6.94c0.45,-0.63 0.91,-1.27 1.38,-1.91c0.09,-0.41 0.17,-0.82 0.25,-1.22l-4.85,-1.71z"/>
   <path id="svg_124" fill="#5A4384" d="m92.64,370a2.63,2.63 0 0 0 2,-0.11a0.78,0.78 0 0 0 0.19,-0.89a0.9,0.9 0 0 0 -0.49,-0.56c-1.09,-0.52 -3.6,0.5 -3.7,0.54a0.19,0.19 0 0 0 -0.12,0.17a0.19,0.19 0 0 0 0.11,0.18a10,10 0 0 0 2.01,0.67zm1.32,-1.29l0.22,0.07a0.52,0.52 0 0 1 0.29,0.33c0.1,0.34 0,0.45 -0.07,0.49c-0.43,0.37 -2,0 -3.17,-0.43a6.22,6.22 0 0 1 2.77,-0.49l-0.04,0.03z"/>
   <path id="svg_125" fill="#5A4384" d="m90.68,369.32l0.09,0c0.92,-0.26 2.87,-1.65 2.89,-2.56a0.62,0.62 0 0 0 -0.49,-0.62a1,1 0 0 0 -0.85,0.07c-1.07,0.55 -1.75,2.78 -1.78,2.87a0.21,0.21 0 0 0 0,0.19a0.21,0.21 0 0 0 0.14,0.05zm2.28,-2.86l0.09,0c0.23,0.08 0.23,0.2 0.23,0.25c0,0.54 -1.3,1.62 -2.25,2.06a4.63,4.63 0 0 1 1.47,-2.26a0.64,0.64 0 0 1 0.5,-0.05l-0.04,0z"/>
   <path id="svg_126" fill="#5A4384" d="m152.19,371.32c1,0 2,-0.14 2.37,-0.61a0.72,0.72 0 0 0 0,-0.83a1,1 0 0 0 -0.61,-0.45c-1.34,-0.36 -4.16,1.24 -4.28,1.31a0.18,0.18 0 0 0 -0.09,0.2a0.19,0.19 0 0 0 0.15,0.16a14.46,14.46 0 0 0 2.46,0.22zm1.28,-1.56a1.45,1.45 0 0 1 0.37,0a0.56,0.56 0 0 1 0.37,0.27c0.14,0.24 0.09,0.35 0,0.42c-0.37,0.52 -2.41,0.53 -3.91,0.32a8.71,8.71 0 0 1 3.17,-1.01z"/>
   <path id="svg_127" fill="#5A4384" d="m149.75,371.1l0.08,0c1,-0.43 2.9,-2.18 2.76,-3.09c0,-0.22 -0.19,-0.48 -0.71,-0.54a1.45,1.45 0 0 0 -1.06,0.33c-1,0.85 -1.25,3 -1.26,3.11a0.21,0.21 0 0 0 0.08,0.17a0.19,0.19 0 0 0 0.11,0.02zm2,-3.27l0.12,0c0.34,0 0.36,0.17 0.37,0.21c0.09,0.55 -1.22,1.92 -2.21,2.51a4.46,4.46 0 0 1 1.06,-2.48a1,1 0 0 1 0.63,-0.24l0.03,0z"/>
   <polygon id="svg_128" fill="#ffc3bd" points="140.88999938964844,370.9100036621094 148.9499969482422,370.9100036621094 149.75,352.2300109863281 141.69000244140625,352.2300109863281 140.88999938964844,370.9100036621094 "/>
   <polygon id="svg_129" fill="#ffc3bd" points="81.83000183105469,367.4599914550781 89.61000061035156,369.1099853515625 96.66999816894531,351.239990234375 88.88999938964844,349.5899963378906 81.83000183105469,367.4599914550781 "/>
   <path id="svg_130" fill="#263238" d="m90.33,368.09l-8.86,-1.92a0.7,0.7 0 0 0 -0.78,0.39l-3.08,6.67a1.19,1.19 0 0 0 0.85,1.66c3.11,0.61 4.65,0.76 8.54,1.6c2.4,0.52 7.81,1.84 11.12,2.55s4.44,-2.46 3.15,-3.05c-5.78,-2.64 -8.2,-5 -9.77,-7.14a1.94,1.94 0 0 0 -1.17,-0.76z"/>
   <path id="svg_131" fill="#263238" d="m148.9,370l-8.81,0a0.72,0.72 0 0 0 -0.69,0.55l-1.59,7.17a1.18,1.18 0 0 0 1.16,1.44c3.18,-0.06 7.77,-0.24 11.76,-0.24c4.67,0 6.33,0.25 11.8,0.25c3.31,0 4.23,-3.34 2.85,-3.65c-6.31,-1.38 -9.09,-1.53 -14.54,-4.89a3.79,3.79 0 0 0 -1.94,-0.63z"/>
   <polygon id="svg_132" opacity="0.2" points="149.75,352.239990234375 149.33999633789062,361.8599853515625 141.27000427246094,361.8599853515625 141.67999267578125,352.239990234375 149.75,352.239990234375 "/>
   <polygon id="svg_133" opacity="0.2" points="88.88999938964844,349.5899963378906 96.66999816894531,351.239990234375 93.02999877929688,360.45001220703125 85.25,358.80999755859375 88.88999938964844,349.5899963378906 "/>
   <path id="svg_134" fill="#263238" d="m146.66,165.75s-9.16,61.64 -14.18,84.73c-5.5,25.29 -35,109 -35,109l-14.48,-3.18s20.64,-68.18 25.25,-103.53c3.55,-27.15 10.54,-87 10.54,-87l27.87,-0.02z"/>
   <path id="svg_135" fill="#fff" opacity="0.1" d="m146.66,165.75s-9.16,61.64 -14.18,84.73c-5.5,25.29 -35,109 -35,109l-14.48,-3.18s20.64,-68.18 25.25,-103.53c3.55,-27.15 10.54,-87 10.54,-87l27.87,-0.02z"/>
   <path id="svg_136" fill="#263238" d="m100.93,354.61c0.06,0 -2.69,5.22 -2.69,5.22l-16.24,-3.52l1.37,-4.88l17.56,3.18z"/>
   <path id="svg_137" opacity="0.3" d="m140.87,187.71c-10.58,2.08 -9.46,41.55 -8.19,61.85c3,-14.35 7.52,-42 10.58,-61.56a3.69,3.69 0 0 0 -2.39,-0.29z"/>
   <path id="svg_138" fill="#263238" d="m162,165.75s1.11,60.3 0.23,84.9c-0.91,25.58 -9.84,109.35 -9.84,109.35l-13.71,0s-0.5,-82.27 -1.11,-107.4c-0.66,-27.39 -4,-86.85 -4,-86.85l28.43,0z"/>
   <path id="svg_139" fill="#fff" opacity="0.1" d="m162,165.75s1.11,60.3 0.23,84.9c-0.91,25.58 -9.84,109.35 -9.84,109.35l-13.71,0s-0.5,-82.27 -1.11,-107.4c-0.66,-27.39 -4,-86.85 -4,-86.85l28.43,0z"/>
   <path id="svg_140" fill="#263238" d="m155,354.56c0.06,0 -0.78,5.67 -0.78,5.67l-16.64,0l-0.45,-5.06l17.87,-0.61z"/>
   <path id="svg_141" fill="#263238" d="m163.06,103.71c1.65,8.72 4.71,33.08 -0.07,68.52l-46.68,-0.72c-0.27,-6.19 4.65,-39.79 0.1,-69.62a6.44,6.44 0 0 1 5.53,-7.34c2.36,-0.32 5.1,-0.62 7.8,-0.75a160,160 0 0 1 18.33,0c2,0.19 4,0.48 5.78,0.79a11.42,11.42 0 0 1 9.21,9.12z"/>
   <path id="svg_142" opacity="0.2" d="m164.34,112.37l-7.86,1.95c-0.6,7.34 4.24,15.65 9.08,22a210.38,210.38 0 0 0 -1.22,-23.95z"/>
   <path id="svg_143" fill="#263238" d="m161.11,99.79c1.33,2.39 2.77,5 4.25,7.43s3,4.92 4.53,7.32a97.77,97.77 0 0 0 10,13.32c0.46,0.47 0.91,0.95 1.37,1.39l0.34,0.33l0.27,0.24c0.15,0.16 0.41,0.34 0.6,0.51c0.92,0.72 2,1.48 3.19,2.21c2.35,1.45 4.87,2.87 7.43,4.24c5.12,2.75 10.42,5.45 15.65,8.18l-2.07,5.69a151.11,151.11 0 0 1 -17.45,-5.31c-2.86,-1.07 -5.73,-2.23 -8.6,-3.64a40.61,40.61 0 0 1 -4.43,-2.46c-0.39,-0.28 -0.76,-0.5 -1.18,-0.83l-0.6,-0.46l-0.49,-0.41c-0.67,-0.54 -1.28,-1.1 -1.9,-1.66a69.26,69.26 0 0 1 -6.6,-7.08c-2,-2.43 -3.87,-5 -5.64,-7.49s-3.45,-5.13 -5,-7.78s-3.09,-5.25 -4.53,-8.13l10.86,-5.61z"/>
   <path id="svg_144" fill="#ffc3bd" d="m127.49,67.06c2.18,8.14 3,13 8.07,16.4c7.56,5.1 17,-0.75 17.26,-9.38c0.26,-7.76 -3.35,-19.77 -12.08,-21.41a11.49,11.49 0 0 0 -13.25,14.39z"/>
   <path id="svg_145" fill="#263238" d="m144.4,67.16c1.94,-2.85 2.68,-7.23 1.32,-9.34c1.27,0.53 10.43,1.16 6.84,-5.36s-10.79,-8.32 -17.06,-6.52l3.05,0.88s-8.57,-0.62 -12.74,2.85c1.27,0.07 2.37,0 2.37,0s-9.18,4.33 -5.18,7.62c-6.45,4.91 -2.08,11.71 8.54,21.85c1.85,1.67 7.09,1.06 8.25,0.06c-0.74,-4.42 3.52,-10.42 4.61,-12.04z"/>
   <path id="svg_146" fill="#263238" d="m145.48,61.61c1.9,1.39 4.25,5.48 5.34,7.52s2.24,1.78 2.79,2.59s2.8,14.51 0.39,16.7s-9.66,-1.27 -10.61,-3.79s0.79,-8.7 1.26,-10.11a14.39,14.39 0 0 0 -0.42,-7.32c-0.84,-2.39 1.25,-5.59 1.25,-5.59z"/>
   <path id="svg_147" fill="#ffc3bd" d="m141.2,67.54a7.7,7.7 0 0 0 3.65,4.76c2.21,1 2.48,-1.57 2.05,-4c-0.39,-2.21 -1,-4 -2.79,-4.86c-2.11,-1.09 -3.64,1.68 -2.91,4.1z"/>
  </g>
 </g>
</svg>