<svg width="356" height="356" xmlns="http://www.w3.org/2000/svg">
 <g>
  <title>background</title>
  <rect x="-1" y="-1" width="358" height="358" id="canvas_background" fill="none"/>
 </g>

 <g>
  <title>Layer 1</title>
  <g id="freepik--background-complete--inject-63">
   <rect y="316.4" width="500" height="0.25" fill="#ebebeb" id="svg_1" x="-83"/>
   <rect x="207.21" y="323.21" width="25.46" height="0.25" fill="#ebebeb" id="svg_2"/>
   <rect x="312.11" y="328.62" width="60.33" height="0.25" fill="#ebebeb" id="svg_3"/>
   <rect x="139.46" y="323.33" width="62.33" height="0.25" fill="#ebebeb" id="svg_4"/>
   <rect x="86" y="330.81" width="13.04" height="0.25" fill="#ebebeb" id="svg_5"/>
   <rect x="111.71" y="330.81" width="59.38" height="0.25" fill="#ebebeb" id="svg_6"/>
   <rect x="-30.54" y="326.59" width="38.45" height="0.25" fill="#ebebeb" id="svg_7"/>
   <path d="m154,271.8l-193.09,0a5.71,5.71 0 0 1 -5.7,-5.71l0,-271.43a5.71,5.71 0 0 1 5.7,-5.66l193.09,0a5.71,5.71 0 0 1 5.71,5.71l0,271.38a5.71,5.71 0 0 1 -5.71,5.71zm-193.09,-282.6a5.46,5.46 0 0 0 -5.45,5.46l0,271.43a5.46,5.46 0 0 0 5.45,5.46l193.09,0a5.47,5.47 0 0 0 5.46,-5.46l0,-271.43a5.47,5.47 0 0 0 -5.46,-5.46l-193.09,0z" fill="#ebebeb" id="svg_8"/>
   <path d="m370.31,271.8l-193.1,0a5.72,5.72 0 0 1 -5.71,-5.71l0,-271.43a5.72,5.72 0 0 1 5.71,-5.66l193.1,0a5.71,5.71 0 0 1 5.69,5.66l0,271.43a5.71,5.71 0 0 1 -5.69,5.71zm-193.1,-282.6a5.47,5.47 0 0 0 -5.46,5.46l0,271.43a5.47,5.47 0 0 0 5.46,5.46l193.1,0a5.47,5.47 0 0 0 5.46,-5.46l0,-271.43a5.47,5.47 0 0 0 -5.46,-5.46l-193.1,0z" fill="#ebebeb" id="svg_9"/>
   <path d="m37.62,190.57s-0.44,13 -17.62,13s-17.62,-13 -17.62,-13l35.24,0z" fill="#f0f0f0" id="svg_10"/>
   <path d="m79.27,190.57s-0.45,13 -17.62,13s-17.62,-13 -17.62,-13l35.24,0z" fill="#f0f0f0" id="svg_11"/>
   <rect x="-11.66" y="212.15" width="39.43" height="95.39" fill="#f0f0f0" id="svg_12"/>
   <rect x="-4.09" y="307.54" width="127.51" height="8.86" fill="#f0f0f0" id="svg_13"/>
   <rect x="352.53001" y="863.85001" width="103.22" height="95.39" transform="rotate(180, 241.76, 585.7)" fill="#f5f5f5" id="svg_14"/>
   <rect x="368.03001" y="832.63" width="72.21" height="29.35" transform="rotate(180, 241.76, 542.87)" fill="#f0f0f0" id="svg_15"/>
   <rect x="368.03001" y="945.75998" width="72.21" height="29.35" transform="rotate(180, 241.76, 618.29)" fill="#f0f0f0" id="svg_16"/>
   <rect x="27.77" y="203.6" width="108.47" height="8.55" fill="#f0f0f0" id="svg_17"/>
   <rect x="159.43001" y="751.36001" width="44.94" height="8.55" transform="rotate(180, 93.6, 481.76)" fill="#e6e6e6" id="svg_18"/>
   <rect x="108.15" y="9.96" width="200.95" height="144.26" fill="#fafafa" id="svg_19"/>
   <polygon points="119.58000183105469,154.22000122070312 170.6999969482422,9.959999084472656 209.05999755859375,9.959999084472656 157.94000244140625,154.22000122070312 119.58000183105469,154.22000122070312 " fill="#fff" id="svg_20"/>
   <polygon points="222.73001098632812,154.22000122070312 273.8399963378906,9.959999084472656 287.8299865722656,9.959999084472656 236.72000122070312,154.22000122070312 222.73001098632812,154.22000122070312 " fill="#fff" id="svg_21"/>
   <path d="m318.68,5l-220.11,0a0.9,0.9 0 0 0 -0.9,0.89l0,0a0.9,0.9 0 0 0 0.9,0.9l220.11,0a0.9,0.9 0 0 0 0.9,-0.9l0,0a0.9,0.9 0 0 0 -0.9,-0.89z" fill="#e0e0e0" id="svg_22"/>
   <rect x="790.68" y="305.82999" width="2.38" height="144.88" transform="rotate(180, 500.25, 230.18)" fill="#f0f0f0" id="svg_23"/>
   <rect x="796.64001" y="305.82999" width="1.19" height="144.88" transform="rotate(180, 503.82, 230.18)" fill="#e0e0e0" id="svg_24"/>
   <rect x="350.96" y="419.95" width="2.38" height="203.73" transform="rotate(-90, 60.53, 373.72)" fill="#f0f0f0" id="svg_25"/>
   <path d="m310.49,153.23l0,0l0,-144.66l-203.73,0l0,144.66l0,0l0,2.38l203.73,0l0,-2.38zm-201.35,0l0,-142.23l199,0l0,142.23l-199,0z" fill="#f0f0f0" id="svg_26"/>
   <rect x="1098.65998" y="304.74999" width="1.19" height="147.04" transform="rotate(180, 705.17, 230.18)" fill="#e0e0e0" id="svg_27"/>
   <polygon points="280.95001220703125,2.8199996948242188 280.95001220703125,172.22999572753906 323.9599914550781,172.22999572753906 316.07000732421875,2.8199996948242188 280.95001220703125,2.8199996948242188 " opacity="0.5" fill="#ebebeb" id="svg_28"/>
   <polygon points="137.49000549316406,2.8199996948242188 137.49000549316406,172.22999572753906 94.47999572753906,172.22999572753906 102.3699951171875,2.8199996948242188 137.49000549316406,2.8199996948242188 " opacity="0.5" fill="#ebebeb" id="svg_29"/>
   <rect x="164.89" y="194.67" width="211.16" height="34.81" fill="#ebebeb" id="svg_30"/>
   <rect x="295.82" y="196.74" width="77.68" height="30.67" fill="#f5f5f5" id="svg_31"/>
   <rect x="215.38" y="196.74" width="77.68" height="30.67" fill="#f5f5f5" id="svg_32"/>
   <polygon points="207.739990234375,316.3999938964844 203.07998657226562,316.3999938964844 213.04998779296875,229.48001098632812 217.70999145507812,229.48001098632812 207.739990234375,316.3999938964844 " fill="#f5f5f5" id="svg_33"/>
   <polygon points="166.6699981689453,316.3999938964844 162,316.3999938964844 171.97000122070312,229.48001098632812 176.6400146484375,229.48001098632812 166.6699981689453,316.3999938964844 " fill="#f5f5f5" id="svg_34"/>
   <polygon points="333.19000244140625,316.3999938964844 337.8599853515625,316.3999938964844 327.8900146484375,229.48001098632812 323.2200012207031,229.48001098632812 333.19000244140625,316.3999938964844 " fill="#f5f5f5" id="svg_35"/>
   <polygon points="374.260009765625,316.3999938964844 378.92999267578125,316.3999938964844 368.9599914550781,229.48001098632812 364.2900085449219,229.48001098632812 374.260009765625,316.3999938964844 " fill="#f5f5f5" id="svg_36"/>
   <polygon points="266.7699890136719,156.3300018310547 250.44000244140625,156.3300018310547 243.6400146484375,194.67001342773438 259.9700012207031,194.67001342773438 266.7699890136719,156.3300018310547 " fill="#e0e0e0" id="svg_37"/>
   <polygon points="303.0899963378906,123 211.760009765625,123 214.54000854492188,178.55999755859375 305.8699951171875,178.55999755859375 303.0899963378906,123 " fill="#e6e6e6" id="svg_38"/>
   <polygon points="300.989990234375,124.32000732421875 213.989990234375,124.32000732421875 216.6400146484375,177.24000549316406 303.6400146484375,177.24000549316406 300.989990234375,124.32000732421875 " fill="#fafafa" id="svg_39"/>
   <rect x="1145.46999" y="699.12999" width="3.21" height="1.48" rx="0.72" transform="rotate(180, 737.05, 444.58)" fill="#e0e0e0" id="svg_40"/>
   <path d="m360.89,125.74l-19.8,19.8a14,14 0 0 1 19.8,-19.8z" fill="#e6e6e6" id="svg_41"/>
   <path d="m333.39,128l7.72,7.72l10,-10l-7.72,-7.71a7.06,7.06 0 0 0 -10,0l0,0a7.06,7.06 0 0 0 0,9.99z" fill="#e6e6e6" id="svg_42"/>
   <rect x="855.91999" y="733.88002" width="1.67" height="46.6" transform="rotate(-135, 457.43, 557.4)" fill="#e6e6e6" id="svg_43"/>
   <rect x="1165.34003" y="385.67999" width="1.67" height="46.6" transform="rotate(149.33, 771.59, 172.54)" fill="#e6e6e6" id="svg_44"/>
   <circle cx="333.39" cy="118.05" r="2.88" fill="#e6e6e6" id="svg_45"/>
   <circle cx="299.82" cy="150.28" r="1.84" fill="#e6e6e6" id="svg_46"/>
   <polygon points="316.25,189.27999877929688 329.82000732421875,189.27999877929688 330.8900146484375,194.67001342773438 315.19000244140625,194.67001342773438 316.25,189.27999877929688 " fill="#e6e6e6" id="svg_47"/>
  </g>
  <g id="freepik--Shadow--inject-63">
   <ellipse id="freepik--path--inject-63" cx="167" cy="350.24" rx="193.89" ry="11.32" fill="#f5f5f5"/>
  </g>
  <g id="freepik--Board--inject-63">
   <path d="m260.31,185.79l-238.55,0a12.38,12.38 0 0 1 -12.28,-12l-3.13,-135.12a11.7,11.7 0 0 1 11.72,-12l238.55,0a12.38,12.38 0 0 1 12.28,12l3.1,135.12a11.7,11.7 0 0 1 -11.69,12z" fill="#5A4384" id="svg_48"/>
   <path d="m260.31,186.29l-238.55,0a12.86,12.86 0 0 1 -12.76,-12.48l-3.15,-135.13a12.19,12.19 0 0 1 12.22,-12.51l238.55,0a12.86,12.86 0 0 1 12.78,12.49l3.13,135.12a12.19,12.19 0 0 1 -12.22,12.51zm-242.24,-159.12a11.19,11.19 0 0 0 -11.22,11.49l3.15,135.12a11.85,11.85 0 0 0 11.78,11.51l238.53,0a11.2,11.2 0 0 0 11.22,-11.48l-3.13,-135.13a11.85,11.85 0 0 0 -11.78,-11.51l-238.55,0z" fill="#5A4384" id="svg_49"/>
   <path d="m262.31,185.79l-238.55,0a12.38,12.38 0 0 1 -12.28,-12l-3.13,-135.12a11.7,11.7 0 0 1 11.72,-12l238.55,0a12.38,12.38 0 0 1 12.28,12l3.1,135.12a11.7,11.7 0 0 1 -11.69,12z" fill="#f5f5f5" id="svg_50"/>
   <path d="m262.31,186.29l-238.55,0a12.86,12.86 0 0 1 -12.76,-12.48l-3.15,-135.13a12.19,12.19 0 0 1 12.22,-12.51l238.55,0a12.86,12.86 0 0 1 12.78,12.49l3.13,135.12a12.19,12.19 0 0 1 -12.22,12.51zm-242.24,-159.12a11.19,11.19 0 0 0 -11.22,11.49l3.15,135.12a11.85,11.85 0 0 0 11.78,11.51l238.53,0a11.2,11.2 0 0 0 11.22,-11.48l-3.13,-135.13a11.85,11.85 0 0 0 -11.78,-11.51l-238.55,0z" fill="#5A4384" id="svg_51"/>
   <path d="m55.23,64.48l-16.13,-15c7.63,-8.24 21.19,-8.24 30,0a23.42,23.42 0 0 1 6.2,9.52l-20.07,5.48z" fill="#e0e0e0" id="svg_52"/>
   <path d="m51.87,64.81l-21,1.85a20.89,20.89 0 0 1 0.52,-9.12a19.36,19.36 0 0 1 4.37,-7.75l16.11,15.02z" opacity="0.2" fill="#5A4384" id="svg_53"/>
   <path d="m55.23,66l-11.64,12.58a19.78,19.78 0 0 1 -3.91,-5.06a18.71,18.71 0 0 1 -2,-6l17.55,-1.52z" fill="#fff" id="svg_54"/>
   <path d="m56.36,67.71l20.11,-5.5a20.36,20.36 0 0 1 -4,20.52c-7.63,8.24 -21.19,8.24 -30,0l13.89,-15.02z" opacity="0.6" fill="#5A4384" id="svg_55"/>
   <path d="m110.48,64.48l-16.13,-15c7.63,-8.24 21.19,-8.24 30,0a23.45,23.45 0 0 1 6.21,9.52l-20.08,5.48z" opacity="0.2" fill="#5A4384" id="svg_56"/>
   <path d="m107.11,64.81l-21,1.85a20.74,20.74 0 0 1 0.53,-9.12a19.22,19.22 0 0 1 4.36,-7.75l16.11,15.02z" fill="#e0e0e0" id="svg_57"/>
   <path d="m110.48,66l-11.65,12.58a19.78,19.78 0 0 1 -3.91,-5.06a18.71,18.71 0 0 1 -2,-6l17.56,-1.52z" opacity="0.6" fill="#5A4384" id="svg_58"/>
   <path d="m111.6,67.71l20.11,-5.5a20.33,20.33 0 0 1 -4,20.52c-7.63,8.24 -21.19,8.24 -30,0l13.89,-15.02z" fill="#fff" id="svg_59"/>
   <g opacity="0.3" id="svg_60">
    <path d="m23.93,166.37l-0.05,0a0.52,0.52 0 0 1 -0.45,-0.55c1.14,-11.78 8.44,-23.07 19.53,-30.19c9.61,-6.17 21.82,-9.29 35.39,-9c3.48,0.07 7,0.36 10.43,0.65a110.53,110.53 0 0 0 15.67,0.54c5.85,-0.35 16.59,-2.14 22.75,-10.24a42.64,42.64 0 0 0 5,-9.68c1.66,-4 3.37,-8.21 6.44,-11.43c4.08,-4.29 10.35,-6.73 18.65,-7.26a117,117 0 0 1 12.85,0.12c3.69,0.17 7.51,0.35 11.26,0.2c6.62,-0.26 15.77,-1.85 21.74,-8c2.74,-2.8 4.64,-6.38 6.48,-9.84c1,-1.8 1.95,-3.67 3.06,-5.43a41.33,41.33 0 0 1 15.32,-14.26a0.49,0.49 0 0 1 0.67,0.2a0.51,0.51 0 0 1 -0.2,0.68a40.35,40.35 0 0 0 -15,14c-1.09,1.73 -2.08,3.58 -3,5.37c-1.87,3.52 -3.8,7.16 -6.65,10.07c-4.91,5 -12.66,7.89 -22.42,8.27c-3.78,0.15 -7.62,0 -11.33,-0.2a117.8,117.8 0 0 0 -12.75,-0.12c-8,0.51 -14.09,2.85 -18,7c-2.94,3.08 -4.61,7.17 -6.24,11.12a43.28,43.28 0 0 1 -5.11,9.91c-6.41,8.41 -17.47,10.27 -23.5,10.63a110.73,110.73 0 0 1 -15.8,-0.55c-3.4,-0.28 -6.92,-0.57 -10.37,-0.64c-13.33,-0.28 -25.39,2.79 -34.83,8.85c-10.83,7 -18,18 -19.07,29.45a0.52,0.52 0 0 1 -0.47,0.33z" fill="#5A4384" id="svg_61"/>
    <path d="m230.09,56.94l-0.09,0a0.5,0.5 0 0 1 -0.35,-0.61l1.09,-4.25a10.15,10.15 0 0 1 0.47,-1.42a0.11,0.11 0 0 0 0,-0.11a48.92,48.92 0 0 0 -9.39,1.16a0.49,0.49 0 0 1 -0.59,-0.38a0.49,0.49 0 0 1 0.38,-0.59a51.69,51.69 0 0 1 9.5,-1.22a1.09,1.09 0 0 1 0.92,0.46a1.11,1.11 0 0 1 0.11,1.07a10,10 0 0 0 -0.42,1.28l-1.1,4.25a0.49,0.49 0 0 1 -0.53,0.36z" fill="#5A4384" id="svg_62"/>
   </g>
  </g>
  <g id="freepik--character-2--inject-63">
   <path d="m271.44,45.89s-14,-6.14 -18.11,11.17c-3.33,13.94 -10.33,19.16 -10.33,19.16s24.75,9.56 38.55,-1.65l-10.11,-28.68z" fill="#263238" id="svg_63"/>
   <path d="m255.17,104.17c-0.51,1.38 -1,2.56 -1.54,3.8s-1.1,2.43 -1.67,3.63c-1.15,2.4 -2.45,4.72 -3.77,7a86.58,86.58 0 0 1 -9.27,13.13l-0.67,0.76c-0.24,0.27 -0.36,0.44 -0.86,0.95a7.9,7.9 0 0 1 -3.34,2a8.23,8.23 0 0 1 -3.55,0.2a11.2,11.2 0 0 1 -2.74,-0.8a19.52,19.52 0 0 1 -4,-2.4a38.48,38.48 0 0 1 -3.22,-2.77a69.15,69.15 0 0 1 -9.94,-12.52l3.55,-2.68a103,103 0 0 0 10.88,10a20.82,20.82 0 0 0 5.52,3.24c0.8,0.27 1.35,0.15 1.21,0.11s-0.13,0 -0.1,0s0.22,-0.29 0.38,-0.51l0.55,-0.72a102.05,102.05 0 0 0 7.9,-12.32c1.18,-2.16 2.28,-4.37 3.35,-6.59c0.53,-1.11 1.05,-2.22 1.55,-3.34s1,-2.29 1.4,-3.3l8.38,3.13z" fill="#ffc3bd" id="svg_64"/>
   <path d="m252.32,92.14c-3.74,-0.14 -10.32,13.46 -10.32,13.46l9.73,11.79s11.34,-14.23 9.79,-18.83c-1.66,-4.79 -3.76,-6.23 -9.2,-6.42z" fill="#263238" id="svg_65"/>
   <polygon points="251.70001220703125,95.41999816894531 246.6400146484375,111.27000427246094 251.20001220703125,116.77999877929688 251.70001220703125,95.41999816894531 " opacity="0.2" id="svg_66"/>
   <path d="m213.35,118.78l-10.35,-2.62l7,-5.53s5.2,2.19 5.53,5.83l-2.18,2.32z" fill="#ffc3bd" id="svg_67"/>
   <polygon points="198.14999389648438,111.72000122070312 203.51998901367188,107.72000122070312 209.95999145507812,110.6300048828125 202.95001220703125,116.16000366210938 198.14999389648438,111.72000122070312 " fill="#ffc3bd" id="svg_68"/>
   <polygon points="278.7300109863281,336.2300109863281 269.95001220703125,336.2300109863281 270.3800048828125,315.8900146484375 279.1600036621094,315.8900146484375 278.7300109863281,336.2300109863281 " fill="#ffc3bd" id="svg_69"/>
   <path d="m269.1,335.21l9.9,0a0.7,0.7 0 0 1 0.7,0.6l1.12,7.81a1.41,1.41 0 0 1 -1.41,1.56c-3.44,-0.06 -5.1,-0.26 -9.44,-0.26c-2.67,0 -10.33,0.28 -14,0.28s-3.88,-3.65 -2.35,-4c6.88,-1.48 11.74,-3.52 14.06,-5.47a2.3,2.3 0 0 1 1.42,-0.52z" fill="#263238" id="svg_70"/>
   <g opacity="0.2" id="svg_71">
    <polygon points="270.3800048828125,315.8900146484375 270.1600036621094,326.3800048828125 278.94000244140625,326.3800048828125 279.1700134277344,315.8900146484375 270.3800048828125,315.8900146484375 " id="svg_72"/>
   </g>
   <path d="m248.79,96.49c-0.19,5.56 0.77,18.53 6.61,48.72l35.66,-1.06c-1,-14.49 -1.31,-23.44 4.74,-53.43a106.25,106.25 0 0 0 -15.2,-1.55a113.39,113.39 0 0 0 -16.2,0.49c-4.12,0.5 -8.57,1.35 -11.49,2a5.17,5.17 0 0 0 -4.12,4.83z" fill="#263238" id="svg_73"/>
   <path d="m278.45,71c-0.87,5.24 -1.6,14.82 2.15,18.18a20.2,20.2 0 0 1 -12.37,8.82c-8.22,-4.17 -3.83,-8.34 -3.83,-8.34c5.77,-1.56 5.49,-5.87 4.36,-9.89l9.69,-8.77z" fill="#ffc3bd" id="svg_74"/>
   <polygon points="268.2300109863281,98 269.2900085449219,95.91999816894531 275,97.21000671386719 268.2300109863281,98 " fill="#e0e0e0" id="svg_75"/>
   <path d="m269.29,95.92c1.84,-0.84 10.32,-6.36 10.65,-8.09c0.67,0.73 4.26,0.95 4.26,0.95s-2.15,9.87 -6.31,17.09c-2.84,-6.44 -5.54,-7.95 -8.6,-9.95z" fill="#fff" id="svg_76"/>
   <polygon points="268.2300109863281,98 267.75,95.91999816894531 264.25,96.16999816894531 268.2300109863281,98 " fill="#e0e0e0" id="svg_77"/>
   <path d="m267.75,95.92c-2.83,-1.88 -2.14,-5.81 -1.86,-7.53c-0.67,0.72 -4.26,0.94 -4.26,0.94s-5.08,9.32 -0.91,16.54c1.97,-5.18 3.97,-7.95 7.03,-9.95z" fill="#fff" id="svg_78"/>
   <path d="m274.5,74.57l-5.73,5.2a17.27,17.27 0 0 1 0.58,2.86c2.21,-0.39 5.19,-2.92 5.35,-5.25a7.8,7.8 0 0 0 -0.2,-2.81z" opacity="0.2" id="svg_79"/>
   <path d="m281.3,59c-0.11,8.72 0,12.41 -4.14,17.08c-6.28,7 -17,5 -19.46,-3.58c-2.24,-7.71 -1.69,-20.67 6.65,-24.55a11.89,11.89 0 0 1 16.95,11.05z" fill="#ffc3bd" id="svg_80"/>
   <path d="m280.59,63.19l0,0l-10.95,-0.54a0.25,0.25 0 0 1 -0.24,-0.26a0.25,0.25 0 0 1 0.27,-0.24l10.95,0.54a0.25,0.25 0 0 1 0.23,0.27a0.24,0.24 0 0 1 -0.26,0.23z" fill="#fff" id="svg_81"/>
   <path d="m255.4,145.21s4.51,65.25 7,91.92c2.61,27.75 6,87.22 6,87.22l11.87,0s2.48,-60.48 1.54,-87.85c-1,-29.83 -0.37,-92.06 -0.37,-92.06l-26.04,0.77z" fill="#263238" id="svg_82"/>
   <polygon points="281.3699951171875,324.7699890136719 267.44000244140625,324.7699890136719 266.4100036621094,320.3299865722656 282.0199890136719,319.7799987792969 281.3699951171875,324.7699890136719 " fill="#5A4384" id="svg_83"/>
   <path d="m281.35,167.74c-1.44,-1.6 -3,-0.77 -4.78,3.79c-5.93,15.56 0.39,40.39 5,54.69c-0.31,-17.8 -0.3,-41.22 -0.22,-58.48z" opacity="0.2" id="svg_84"/>
   <path d="m267,62.76c0,0.71 -0.32,1.3 -0.78,1.32s-0.86,-0.53 -0.9,-1.24s0.31,-1.3 0.78,-1.32s0.9,0.53 0.9,1.24z" fill="#263238" id="svg_85"/>
   <path d="m259,63c0,0.71 -0.32,1.3 -0.78,1.32s-0.86,-0.53 -0.9,-1.24s0.31,-1.3 0.78,-1.32s0.9,0.48 0.9,1.24z" fill="#263238" id="svg_86"/>
   <path d="m258.29,61.74l-1.72,-0.41s0.94,1.29 1.72,0.41z" fill="#263238" id="svg_87"/>
   <path d="m262.08,63.53a18.81,18.81 0 0 1 -2.3,4.64a3,3 0 0 0 2.55,0.35l-0.25,-4.99z" fill="#ed847e" id="svg_88"/>
   <path d="m266.32,71.1a6.56,6.56 0 0 1 -1,0.13a0.21,0.21 0 0 1 -0.22,-0.2a0.22,0.22 0 0 1 0.2,-0.21a5.58,5.58 0 0 0 4.46,-2.42a0.21,0.21 0 0 1 0.29,-0.07a0.2,0.2 0 0 1 0.07,0.28a5.8,5.8 0 0 1 -3.8,2.49z" fill="#263238" id="svg_89"/>
   <path d="m284,66.86a6.34,6.34 0 0 1 -3.14,3.71c-2,1 -3.42,-0.67 -3.23,-2.78c0.17,-1.89 1.41,-4.71 3.59,-4.84a2.86,2.86 0 0 1 2.78,3.91z" fill="#ffc3bd" id="svg_90"/>
   <path d="m270.13,60.32a0.4,0.4 0 0 1 -0.44,-0.2c-0.95,-1.67 -3.42,-1.93 -3.44,-1.94a0.41,0.41 0 1 1 0.08,-0.82c0.12,0 2.92,0.3 4.08,2.35a0.41,0.41 0 0 1 -0.15,0.57l-0.13,0.04z" fill="#263238" id="svg_91"/>
   <path d="m256.42,58.92a0.39,0.39 0 0 1 -0.39,-0.13a0.41,0.41 0 0 1 0,-0.59a4.14,4.14 0 0 1 3.64,-1.06a0.42,0.42 0 0 1 0.3,0.51a0.43,0.43 0 0 1 -0.51,0.3l0,0a3.24,3.24 0 0 0 -2.87,0.87a0.42,0.42 0 0 1 -0.17,0.1z" fill="#263238" id="svg_92"/>
   <path d="m300.2,100.8c1.17,4.67 2.39,9.43 3.64,14.11s2.62,9.35 4.13,13.87s3.38,9 5.11,13.6s3.49,9.24 5.08,13.93l-4,1.89c-2.6,-4.24 -5,-8.55 -7.37,-12.93q-1.75,-3.28 -3.42,-6.64c-1.13,-2.21 -2.2,-4.59 -3.15,-7c-1.91,-4.74 -3.5,-9.51 -4.92,-14.31s-2.72,-9.6 -3.82,-14.54l8.72,-1.98z" fill="#ffc3bd" id="svg_93"/>
   <path d="m295.8,90.72c3.6,1 8.26,13.15 8.26,13.15l-13.57,10.32s-5.36,-10.11 -4,-14.78c1.43,-4.85 5.19,-9.81 9.31,-8.69z" fill="#263238" id="svg_94"/>
   <path d="m265.8,336.75a3.34,3.34 0 0 1 -2.13,-0.54a1.18,1.18 0 0 1 -0.38,-1a0.68,0.68 0 0 1 0.36,-0.55c1.07,-0.59 4.57,1.2 5,1.4a0.22,0.22 0 0 1 0.11,0.22a0.19,0.19 0 0 1 -0.17,0.17a14.65,14.65 0 0 1 -2.79,0.3zm-1.57,-1.82a0.81,0.81 0 0 0 -0.38,0.07a0.26,0.26 0 0 0 -0.14,0.23a0.74,0.74 0 0 0 0.24,0.67c0.53,0.48 2,0.56 3.92,0.24a11.19,11.19 0 0 0 -3.64,-1.21z" fill="#5A4384" id="svg_95"/>
   <path d="m268.52,336.44l-0.08,0c-1.05,-0.48 -3.12,-2.37 -3,-3.36c0,-0.24 0.21,-0.53 0.78,-0.59a1.5,1.5 0 0 1 1.16,0.36c1.1,0.92 1.3,3.28 1.31,3.38a0.21,0.21 0 0 1 -0.09,0.19a0.21,0.21 0 0 1 -0.08,0.02zm-2.09,-3.56l-0.12,0c-0.38,0 -0.41,0.19 -0.42,0.24c-0.09,0.6 1.31,2.09 2.38,2.74a4.83,4.83 0 0 0 -1.12,-2.71a1.06,1.06 0 0 0 -0.72,-0.27z" fill="#5A4384" id="svg_96"/>
   <polygon points="330.2699890136719,336.2300109863281 321.489990234375,336.2300109863281 316.1700134277344,315.8900146484375 324.9599914550781,315.8900146484375 330.2699890136719,336.2300109863281 " fill="#ffc3bd" id="svg_97"/>
   <path d="m330.35,335.21l-9.87,0a0.53,0.53 0 0 0 -0.57,0.6l0.6,7.81a1.84,1.84 0 0 0 1.75,1.56c3.43,-0.06 5,-0.26 9.38,-0.26c2.67,0 5.33,0.28 9,0.28s3.08,-3.65 1.47,-4c-7.21,-1.48 -7.45,-3.52 -10.2,-5.47a2.79,2.79 0 0 0 -1.56,-0.52z" fill="#263238" id="svg_98"/>
   <g opacity="0.2" id="svg_99">
    <polygon points="316.17999267578125,315.8900146484375 318.9100036621094,326.3800048828125 327.70001220703125,326.3800048828125 324.9599914550781,315.8900146484375 316.17999267578125,315.8900146484375 " id="svg_100"/>
   </g>
   <path d="m291.06,144.15c10.15,13.6 16.33,63.54 20.82,90.24c4.67,27.77 16.15,90 16.15,90l-11.87,0s-16.15,-63.3 -24.61,-90.1c-9.35,-29.59 -23.32,-90.1 -23.32,-90.1l22.83,-0.04z" fill="#263238" id="svg_101"/>
   <polygon points="328.8800048828125,324.7699890136719 314.94000244140625,324.7699890136719 313.9200134277344,320.3299865722656 329.5299987792969,319.7799987792969 328.8800048828125,324.7699890136719 " fill="#5A4384" id="svg_102"/>
   <path d="m331.52,335.46a3.31,3.31 0 0 0 1.69,-1.41a1.16,1.16 0 0 0 -0.1,-1.08a0.67,0.67 0 0 0 -0.55,-0.34c-1.23,-0.07 -3.62,3.05 -3.89,3.41a0.21,0.21 0 0 0 0,0.24a0.19,0.19 0 0 0 0.22,0.08a14.67,14.67 0 0 0 2.63,-0.9zm0.63,-2.32a0.9,0.9 0 0 1 0.38,-0.1a0.25,0.25 0 0 1 0.22,0.15a0.74,0.74 0 0 1 0.08,0.7c-0.28,0.66 -1.55,1.36 -3.44,1.91a11.42,11.42 0 0 1 2.76,-2.66z" fill="#5A4384" id="svg_103"/>
   <path d="m328.93,336.35a0.18,0.18 0 0 0 0.07,-0.05c0.74,-0.88 1.79,-3.48 1.22,-4.31c-0.14,-0.2 -0.42,-0.39 -1,-0.19a1.53,1.53 0 0 0 -0.89,0.82c-0.6,1.3 0.24,3.52 0.27,3.62a0.21,0.21 0 0 0 0.16,0.13a0.19,0.19 0 0 0 0.17,-0.02zm0.35,-4.11l0.12,-0.05c0.36,-0.13 0.45,0 0.47,0c0.35,0.49 -0.28,2.44 -1,3.49a4.82,4.82 0 0 1 -0.16,-2.93a1.06,1.06 0 0 1 0.57,-0.51z" fill="#5A4384" id="svg_104"/>
   <path d="m266.29,61.55l-1.72,-0.41s0.94,1.29 1.72,0.41z" fill="#263238" id="svg_105"/>
   <path d="m291.53,142l1,3.17c0.13,0.24 -0.16,0.5 -0.57,0.52l-36.7,1.09c-0.32,0 -0.59,-0.14 -0.62,-0.34l-0.41,-3.19c0,-0.22 0.24,-0.41 0.59,-0.42l36.11,-1.08a0.67,0.67 0 0 1 0.6,0.25z" fill="#5A4384" id="svg_106"/>
   <path d="m286.8,146.23l1,0c0.19,0 0.33,-0.11 0.32,-0.23l-0.58,-4.14c0,-0.12 -0.19,-0.21 -0.38,-0.21l-1,0c-0.19,0 -0.33,0.11 -0.32,0.23l0.58,4.14c0.02,0.12 0.19,0.21 0.38,0.21z" fill="#263238" id="svg_107"/>
   <path d="m258,147.08l1,0c0.19,0 0.33,-0.11 0.32,-0.23l-0.58,-4.13c0,-0.12 -0.19,-0.22 -0.38,-0.21l-1,0c-0.19,0 -0.33,0.11 -0.32,0.23l0.58,4.13c0.02,0.13 0.19,0.22 0.38,0.21z" fill="#263238" id="svg_108"/>
   <path d="m272.4,146.65l1,0c0.19,0 0.33,-0.11 0.32,-0.24l-0.58,-4.13c0,-0.12 -0.19,-0.21 -0.38,-0.21l-1,0c-0.19,0 -0.33,0.11 -0.32,0.23l0.58,4.13c-0.02,0.14 0.19,0.23 0.38,0.22z" fill="#263238" id="svg_109"/>
   <path d="m317.15,154.73l7,6.41l-8.86,1.14s-3.32,-4.55 -1.74,-7.84l3.6,0.29z" fill="#ffc3bd" id="svg_110"/>
   <polygon points="325.3399963378906,168.42999267578125 317.8699951171875,168.97999572753906 315.2699890136719,162.27999877929688 324.1300048828125,161.14999389648438 325.3399963378906,168.42999267578125 " fill="#ffc3bd" id="svg_111"/>
   <path d="m272.5,46.8s-7.37,-3.38 -15.5,6.87c9.79,2.91 16.37,0.89 16.37,0.89l-0.87,-7.76z" fill="#263238" id="svg_112"/>
   <path d="m271.44,45.89s1.78,25.77 0,38.61c10.34,-3.28 20.23,-13.51 20.23,-13.51s-1.45,-28.21 -20.23,-25.1z" fill="#263238" id="svg_113"/>
   <path d="m266.19,68.73c-2.32,0 -4.45,-2.87 -4.76,-6.4a7.16,7.16 0 0 1 1.44,-5.38a3,3 0 0 1 2.25,-1.06c2.32,0 4.46,2.87 4.77,6.4l0,0a7.12,7.12 0 0 1 -1.45,5.38a3,3 0 0 1 -2.25,1.06zm-1.07,-12.34a2.56,2.56 0 0 0 -1.88,0.89a6.68,6.68 0 0 0 -1.31,5c0.28,3.27 2.2,5.94 4.26,5.94a2.5,2.5 0 0 0 1.88,-0.9a6.66,6.66 0 0 0 1.32,-5l0,0c-0.29,-3.27 -2.2,-5.93 -4.27,-5.93z" fill="#fff" id="svg_114"/>
   <path d="m257.48,68.73c-1.88,0 -3.6,-2.81 -3.91,-6.4c-0.21,-2.41 0.29,-4.6 1.3,-5.7a2.08,2.08 0 0 1 1.54,-0.74c1.88,0 3.59,2.81 3.91,6.4l0,0c0.2,2.41 -0.3,4.59 -1.31,5.7a2.08,2.08 0 0 1 -1.53,0.74zm-1.07,-12.34a1.54,1.54 0 0 0 -1.17,0.58c-0.91,1 -1.37,3.08 -1.17,5.32c0.27,3.22 1.84,5.94 3.41,5.94a1.57,1.57 0 0 0 1.16,-0.58c0.91,-1 1.37,-3.08 1.18,-5.32l0,0c-0.28,-3.22 -1.82,-5.94 -3.41,-5.94z" fill="#fff" id="svg_115"/>
   <path d="m261.68,62.56l-0.11,0a1.46,1.46 0 0 0 -1.37,0a0.25,0.25 0 0 1 -0.34,-0.08a0.24,0.24 0 0 1 0.07,-0.34a2,2 0 0 1 1.85,0a0.26,0.26 0 0 1 0.13,0.33a0.28,0.28 0 0 1 -0.23,0.09z" fill="#fff" id="svg_116"/>
  </g>
  <g id="freepik--Desk--inject-63">
   <rect x="30.33" y="214.84" width="273.33" height="9.33" fill="#5A4384" id="svg_117"/>
   <rect x="30.33" y="214.84" width="273.33" height="9.33" opacity="0.8" fill="#fff" id="svg_118"/>
   <rect x="223.67" y="214.84" width="80" height="9.33" opacity="0.3" fill="#5A4384" id="svg_119"/>
   <polygon points="243.17001342773438,348.6700134277344 237.83999633789062,348.6700134277344 230.75,224.17001342773438 243.17001342773438,224.17001342773438 243.17001342773438,348.6700134277344 " fill="#5A4384" id="svg_120"/>
   <polygon points="298.3299865722656,348.6700134277344 303.6700134277344,348.6700134277344 296.5799865722656,224.17001342773438 284.1600036621094,224.17001342773438 298.3299865722656,348.6700134277344 " fill="#5A4384" id="svg_121"/>
   <polygon points="35.66999816894531,348.6700134277344 30.330001831054688,348.6700134277344 37.41999816894531,224.17001342773438 49.839996337890625,224.17001342773438 35.66999816894531,348.6700134277344 " fill="#5A4384" id="svg_122"/>
   <polygon points="90.83000183105469,348.6700134277344 96.16000366210938,348.6700134277344 103.25,224.17001342773438 90.83000183105469,224.17001342773438 90.83000183105469,348.6700134277344 " fill="#5A4384" id="svg_123"/>
   <path d="m219.45,170.14l-58.32,0a3,3 0 0 0 -2.85,2.43l-6.38,36.53a2,2 0 0 0 2,2.42l58.31,0a3,3 0 0 0 2.85,-2.42l6.38,-36.53a2,2 0 0 0 -1.99,-2.43z" fill="#5A4384" id="svg_124"/>
   <path d="m219.45,170.14l-58.32,0a3,3 0 0 0 -2.85,2.43l-6.38,36.53a2,2 0 0 0 2,2.42l58.31,0a3,3 0 0 0 2.85,-2.42l6.38,-36.53a2,2 0 0 0 -1.99,-2.43z" opacity="0.2" fill="#fff" id="svg_125"/>
   <path d="m218.33,170.14l-58.33,0a3,3 0 0 0 -2.85,2.43l-6.38,36.53a2,2 0 0 0 2,2.42l58.31,0a3,3 0 0 0 2.92,-2.42l6.38,-36.53a2,2 0 0 0 -2.05,-2.43z" fill="#5A4384" id="svg_126"/>
   <path d="m218.33,170.14l-58.33,0a3,3 0 0 0 -2.85,2.43l-6.38,36.53a2,2 0 0 0 2,2.42l58.31,0a3,3 0 0 0 2.92,-2.42l6.38,-36.53a2,2 0 0 0 -2.05,-2.43z" opacity="0.4" fill="#fff" id="svg_127"/>
   <path d="m152.8,210.52a1.05,1.05 0 0 1 -0.82,-0.34a1.12,1.12 0 0 1 -0.2,-0.91l6.38,-36.53a2,2 0 0 1 1.86,-1.6l58.31,0a1.06,1.06 0 0 1 0.82,0.35a1.11,1.11 0 0 1 0.2,0.91l-6.35,36.52a2,2 0 0 1 -1.86,1.6l-58.34,0z" fill="#fff" id="svg_128"/>
   <path d="m211.4,211.52l-73.34,0a3.27,3.27 0 0 0 -3.25,3.25l79.84,0a3.27,3.27 0 0 0 -3.25,-3.25z" fill="#5A4384" id="svg_129"/>
   <path d="m211.4,211.52l-73.34,0a3.27,3.27 0 0 0 -3.25,3.25l79.84,0a3.27,3.27 0 0 0 -3.25,-3.25z" opacity="0.4" fill="#fff" id="svg_130"/>
   <path d="m211.4,211.52l-16.34,0a3.27,3.27 0 0 0 -3.25,3.25l22.84,0a3.27,3.27 0 0 0 -3.25,-3.25z" opacity="0.8" fill="#5A4384" id="svg_131"/>
   <rect x="237.91" y="198.52" width="13.09" height="16.32" rx="1.19" fill="#5A4384" id="svg_132"/>
   <path d="m239.63,206.47l0.19,-0.94l-0.9,0l0,-1l1.08,0l0.26,-1.32l1,0l-0.27,1.32l0.81,0l0.27,-1.32l1.05,0l-0.27,1.32l0.51,0l0,1l-0.71,0l-0.19,0.94l0.9,0l0,1l-1.11,0l-0.26,1.3l-0.99,0l0.26,-1.29l-0.81,0l-0.26,1.3l-1,0l0.26,-1.3l-0.51,0l0,-1l0.69,-0.01zm1.05,0l0.81,0l0.19,-0.94l-0.81,0l-0.19,0.94z" fill="#fff" id="svg_133"/>
   <path d="m247.4,203.2l0,5.5l-1.52,0l0,-3.61a4.48,4.48 0 0 1 -0.71,0.46a6.73,6.73 0 0 1 -0.87,0.33l0,-1.23a3.82,3.82 0 0 0 1.2,-0.6a2.41,2.41 0 0 0 0.66,-0.85l1.24,0z" fill="#fff" id="svg_134"/>
   <path d="m252.23,213.05c-2.59,0 -4.62,-2.8 -4.62,-6.37s2.07,-6.38 4.62,-6.38s4.62,2.86 4.62,6.38s-2.03,6.37 -4.62,6.37zm0,-11.28c-1.71,0 -3.15,2.24 -3.15,4.91s1.44,4.9 3.15,4.9s3.15,-2.24 3.15,-4.9s-1.45,-4.91 -3.15,-4.91z" fill="#5A4384" id="svg_135"/>
  </g>
  <g id="freepik--character-1--inject-63">
   <path d="m98.55,168.11l-0.93,1.44l-1,1.58c-0.65,1.06 -1.28,2.14 -1.91,3.23c-1.24,2.18 -2.44,4.39 -3.55,6.63a91.35,91.35 0 0 0 -5.59,13.71c-0.36,1.16 -0.68,2.32 -1,3.48l-0.41,1.75l-0.17,0.87l-0.09,0.44c0,0.14 -0.06,0.33 -0.06,0.29s-0.08,0 -0.18,-0.26a1.48,1.48 0 0 0 -0.48,-0.58c-0.17,-0.1 -0.2,0 -0.11,0.09a3,3 0 0 0 0.69,0.47a11.2,11.2 0 0 0 2.69,0.92a32.9,32.9 0 0 0 3.43,0.61c2.38,0.31 5,0.46 7.46,0.59l0.25,0a3.51,3.51 0 0 1 1,6.81a43.27,43.27 0 0 1 -8.52,2.11a26.28,26.28 0 0 1 -9.78,-0.25a14.11,14.11 0 0 1 -3,-1.11a11.56,11.56 0 0 1 -3.22,-2.42a10.57,10.57 0 0 1 -2.34,-4.1a11.86,11.86 0 0 1 -0.41,-4.24c0,-0.38 0,-0.52 0.06,-0.71l0.07,-0.55l0.13,-1.12c0.11,-0.73 0.21,-1.47 0.33,-2.2c0.25,-1.46 0.53,-2.91 0.88,-4.33a87.5,87.5 0 0 1 5.74,-16.33c1.21,-2.58 2.5,-5.12 3.91,-7.59c0.7,-1.24 1.44,-2.46 2.2,-3.67c0.38,-0.61 0.77,-1.21 1.18,-1.82s0.79,-1.16 1.31,-1.88a7,7 0 0 1 11.57,7.86l-0.15,0.28z" fill="#5A4384" id="svg_136"/>
   <path d="m125.29,127.75c0.1,0.68 0.54,1.17 1,1.11s0.72,-0.67 0.62,-1.34s-0.54,-1.17 -1,-1.11s-0.72,0.67 -0.62,1.34z" fill="#263238" id="svg_137"/>
   <path d="m125.77,128.93a24.41,24.41 0 0 0 4.08,5.29a3.92,3.92 0 0 1 -3.13,1.08l-0.95,-6.37z" fill="#a02724" id="svg_138"/>
   <path d="m122.34,124.37a0.33,0.33 0 0 0 0.22,-0.11a3.15,3.15 0 0 1 2.74,-0.93a0.41,0.41 0 0 0 0.48,-0.31a0.4,0.4 0 0 0 -0.31,-0.47a3.94,3.94 0 0 0 -3.47,1.14a0.41,0.41 0 0 0 0,0.57a0.42,0.42 0 0 0 0.34,0.11z" fill="#263238" id="svg_139"/>
   <path d="m105.48,135.2c0.29,6.3 -0.19,17.68 -5.08,21.13c0,0 0.75,6.45 12.12,8.15c12.49,1.86 6.9,-5.32 6.9,-5.32c-6.58,-2.64 -5.65,-7.68 -3.75,-12.25l-10.19,-11.71z" fill="#b55b52" id="svg_140"/>
   <path d="m98.44,158.85c-0.49,-2.85 -1,-6.1 1.15,-6.6c2.36,-0.55 14.58,1.08 18.44,4s1.88,8 1.88,8l-21.47,-5.4z" fill="#e0e0e0" id="svg_141"/>
   <path d="m131.39,169.47c0.46,10.08 0,30.07 -6.84,60.33l-45.22,0c-0.28,-6.29 6.21,-33.41 5.65,-63.21a11.26,11.26 0 0 1 11.23,-11.47c0.89,0 1.83,0 2.8,0.11a160.45,160.45 0 0 1 19.06,2.48c1.88,0.43 3.71,0.93 5.37,1.44a11.32,11.32 0 0 1 7.95,10.32z" fill="#5A4384" id="svg_142"/>
   <path d="m124.56,187.61c-0.72,5.12 -2.38,14 3.61,23.82c0.68,-4.07 1.23,-7.88 1.68,-11.44l-5.29,-12.38z" opacity="0.2" id="svg_143"/>
   <path d="m159.8,200l7.61,-2.62l-3.1,-8a9.65,9.65 0 0 0 -7.69,6.27l3.18,4.35z" fill="#b55b52" id="svg_144"/>
   <polygon points="171.44000244140625,195.10000610351562 172.25,188.63999938964844 164.30999755859375,189.3000030517578 167.41000366210938,197.32998657226562 171.44000244140625,195.10000610351562 " fill="#b55b52" id="svg_145"/>
   <path d="m131.34,168.54c0.42,1.47 0.94,3.18 1.44,4.78s1,3.24 1.58,4.85c1.08,3.22 2.27,6.39 3.52,9.49s2.65,6.11 4.16,8.92a39.48,39.48 0 0 0 5,7.43l-7.33,-1.13c1.41,-0.61 2.86,-1.24 4.32,-2s2.95,-1.44 4.42,-2.24l4.5,-2.37c1.5,-0.79 3,-1.65 4.53,-2.39l0.16,-0.08a3.54,3.54 0 0 1 4.41,5.3a53.52,53.52 0 0 1 -3.58,4.25c-1.25,1.35 -2.56,2.63 -3.92,3.89s-2.8,2.45 -4.3,3.59s-3.09,2.24 -4.78,3.26a5.78,5.78 0 0 1 -6.94,-0.77l-0.39,-0.37a47,47 0 0 1 -7.65,-9.67a85.91,85.91 0 0 1 -5.35,-10.15c-1.57,-3.43 -2.92,-6.91 -4.15,-10.41c-0.61,-1.75 -1.2,-3.51 -1.73,-5.28s-1,-3.51 -1.51,-5.47a7,7 0 0 1 13.53,-3.61l0.06,0.18z" fill="#5A4384" id="svg_146"/>
   <path d="m102.58,129.69c1.75,8.2 2.35,13.09 7.17,16.72c7.25,5.46 16.91,0.14 17.65,-8.43c0.66,-7.71 -2.3,-19.83 -10.9,-21.92a11.45,11.45 0 0 0 -13.92,13.63z" fill="#b55b52" id="svg_147"/>
   <path d="m120.25,130.55c3.92,-0.3 3.69,-2.11 2.81,-3.44s-1.95,-6.11 -1.95,-6.11s5.45,1.44 4.33,-3.78s-8.48,-11.83 -14.91,-7.78c-12.81,-2.11 -17,3.06 -15,7.84c-10.17,4.5 -2.83,13.61 1.22,13.61c-3.61,3.22 1.78,7.86 10.52,13.07c6.4,-7.71 15.84,-5.64 12.98,-13.41z" fill="#263238" id="svg_148"/>
   <path d="m112.33,112.06a1,1 0 0 1 -0.71,-0.31a12.08,12.08 0 0 0 -11.62,-3.17a1,1 0 0 1 -1.2,-0.74a1,1 0 0 1 0.74,-1.2a14.18,14.18 0 0 1 13.54,3.72a1,1 0 0 1 0,1.41a1,1 0 0 1 -0.75,0.29z" fill="#263238" id="svg_149"/>
   <path d="m99.08,140a1,1 0 0 1 -0.71,-0.29c-2.82,-2.84 -4,-5.06 -3.64,-7a4.54,4.54 0 0 1 2.84,-3.24a1,1 0 0 1 0.86,1.81c-1.05,0.5 -1.61,1.08 -1.73,1.77s0.28,2.42 3.09,5.24a1,1 0 0 1 0,1.42a1,1 0 0 1 -0.71,0.29z" fill="#263238" id="svg_150"/>
   <path d="m115.43,129.91a9.54,9.54 0 0 0 3.7,4.84c2.29,1.51 3.84,-0.2 3.54,-2.67c-0.27,-2.23 -1.79,-5.7 -4.25,-6.23s-3.76,1.67 -2.99,4.06z" fill="#b55b52" id="svg_151"/>
   <path d="m193.62,341.35c1.08,0 2.13,-0.15 2.48,-0.63a0.77,0.77 0 0 0 0,-0.88a1,1 0 0 0 -0.63,-0.47c-1.41,-0.38 -4.36,1.3 -4.49,1.38a0.18,0.18 0 0 0 -0.09,0.2a0.2,0.2 0 0 0 0.15,0.17a15.85,15.85 0 0 0 2.58,0.23zm1.34,-1.64a1.46,1.46 0 0 1 0.38,0.05a0.6,0.6 0 0 1 0.4,0.28c0.14,0.25 0.09,0.37 0,0.44c-0.4,0.55 -2.54,0.56 -4.11,0.34a9.15,9.15 0 0 1 3.37,-1.11l-0.04,0z" fill="#5A4384" id="svg_152"/>
   <path d="m191.06,341.12l0.08,0c1,-0.45 3.05,-2.28 2.89,-3.24c0,-0.22 -0.19,-0.5 -0.74,-0.56a1.49,1.49 0 0 0 -1.11,0.34c-1.08,0.89 -1.31,3.17 -1.32,3.26a0.21,0.21 0 0 0 0.09,0.18a0.15,0.15 0 0 0 0.11,0.02zm2.07,-3.43l0.12,0c0.36,0 0.38,0.18 0.39,0.22c0.09,0.58 -1.28,2 -2.33,2.64a4.71,4.71 0 0 1 1.12,-2.61a1.08,1.08 0 0 1 0.7,-0.25z" fill="#5A4384" id="svg_153"/>
   <polygon points="181.45001220703125,340.9200134277344 189.91000366210938,340.9200134277344 188.29998779296875,321.3399963378906 179.83999633789062,321.3399963378906 181.45001220703125,340.9200134277344 " fill="#b55b52" id="svg_154"/>
   <path d="m189.92,339.94l-9.23,0a0.62,0.62 0 0 0 -0.64,0.58l-0.55,7.48a1.46,1.46 0 0 0 1.44,1.51c3.32,-0.06 8.1,-0.25 12.29,-0.25c4.89,0 5.4,0.26 11.14,0.26c3.47,0 3.91,-3.51 2.41,-3.82c-6.82,-1.45 -8.49,-1.61 -14.73,-5.13a4.42,4.42 0 0 0 -2.13,-0.63z" fill="#263238" id="svg_155"/>
   <polygon points="188.29000854492188,321.3500061035156 189.1300048828125,331.44000244140625 180.67001342773438,331.44000244140625 179.83999633789062,321.3500061035156 188.29000854492188,321.3500061035156 " opacity="0.2" id="svg_156"/>
   <path d="m141,341.35a2.77,2.77 0 0 0 2,-0.55a0.85,0.85 0 0 0 0,-1a0.94,0.94 0 0 0 -0.63,-0.46c-1.23,-0.29 -3.57,1.31 -3.67,1.38a0.21,0.21 0 0 0 -0.08,0.2a0.18,0.18 0 0 0 0.15,0.15a10.21,10.21 0 0 0 2.23,0.28zm1.06,-1.61a1,1 0 0 1 0.25,0a0.55,0.55 0 0 1 0.37,0.27c0.18,0.33 0.07,0.47 0,0.51c-0.36,0.48 -2.09,0.48 -3.35,0.27a6.5,6.5 0 0 1 2.67,-1.05l0.06,0z" fill="#5A4384" id="svg_157"/>
   <path d="m138.82,341.12l0.09,0c0.88,-0.48 2.57,-2.33 2.39,-3.27a0.66,0.66 0 0 0 -0.64,-0.53a1.09,1.09 0 0 0 -0.85,0.26c-1,0.8 -1.19,3.24 -1.19,3.34a0.2,0.2 0 0 0 0.09,0.19a0.2,0.2 0 0 0 0.11,0.01zm1.7,-3.43l0.09,0c0.26,0 0.29,0.15 0.3,0.2c0.1,0.56 -1,2 -1.85,2.62a4.83,4.83 0 0 1 1,-2.65a0.72,0.72 0 0 1 0.46,-0.17z" fill="#5A4384" id="svg_158"/>
   <polygon points="131.0800018310547,340.9200134277344 139.52999877929688,340.9200134277344 143.77999877929688,321.3399963378906 135.3300018310547,321.3399963378906 131.0800018310547,340.9200134277344 " fill="#b55b52" id="svg_159"/>
   <path d="m140.13,339.94l-9.49,0a0.73,0.73 0 0 0 -0.72,0.58l-1.67,7.48a1.24,1.24 0 0 0 1.23,1.51c3.32,-0.06 4.93,-0.25 9.11,-0.25c2.57,0 5.86,0.26 9.41,0.26s4,-3.51 2.56,-3.82c-6.51,-1.43 -7,-3.39 -9.05,-5.27a2.06,2.06 0 0 0 -1.38,-0.49z" fill="#263238" id="svg_160"/>
   <path d="m111,229.8s46.9,14.23 48.06,33.07c2.13,34.7 -14.89,64.27 -14.89,64.27l-12.68,0s4.82,-14.66 6.55,-46.09c2.17,-39.5 -72.52,0.92 -58.71,-51.25l31.67,0z" id="svg_161"/>
   <g opacity="0.2" id="svg_162">
    <polygon points="135.32000732421875,321.3500061035156 143.77999877929688,321.3500061035156 141.58999633789062,331.44000244140625 133.1300048828125,331.44000244140625 135.32000732421875,321.3500061035156 " id="svg_163"/>
   </g>
   <path d="m124.55,229.8s60.65,4 63.05,36.19c2.75,37 3.55,61.15 3.55,61.15l-12.56,0s-6.46,-22.69 -12,-55.31c-1.67,-9.77 -22.39,-11.45 -42,-12.61c-16.9,-1 -29.88,-2 -31.3,-20.72l0.22,-8.7l31.04,0z" fill="#263238" id="svg_164"/>
   <path d="m194.22,323.78c0.07,0 -0.81,6 -0.81,6l-17.41,0l-0.47,-5.31l18.69,-0.69z" fill="#5A4384" id="svg_165"/>
   <path d="m148,323.78c0.07,0 -1.6,6 -1.6,6l-17.4,0l0.32,-5.31l18.68,-0.69z" fill="#5A4384" id="svg_166"/>
   <path d="m121.82,256.56l-8.49,-57.67a6.57,6.57 0 0 0 -6.5,-5.62l-50.09,0a6.57,6.57 0 0 0 -6.5,7.53l8.2,55.76l0,0a4.88,4.88 0 0 0 4.89,4.88l91.31,0a4.88,4.88 0 0 0 -4.89,-4.88l-27.93,0z" fill="#5A4384" id="svg_167"/>
   <path d="m121.82,256.56l-8.49,-57.67a6.57,6.57 0 0 0 -6.5,-5.62l-50.09,0a6.57,6.57 0 0 0 -6.5,7.53l8.2,55.76l0,0a4.88,4.88 0 0 0 4.89,4.88l91.31,0a4.88,4.88 0 0 0 -4.89,-4.88l-27.93,0z" opacity="0.5" fill="#fff" id="svg_168"/>
   <path d="m106.83,193.27l-50.09,0a6.57,6.57 0 0 0 -6.5,7.53l8.2,55.76a4.88,4.88 0 0 0 4.89,4.88l53.11,0l-9.61,-68.17z" opacity="0.3" fill="#5A4384" id="svg_169"/>
   <polygon points="59.08000183105469,350.239990234375 56.25,350.239990234375 63.33000183105469,261.44000244140625 66.16999816894531,261.44000244140625 59.08000183105469,350.239990234375 " fill="#5A4384" id="svg_170"/>
   <polygon points="59.08000183105469,350.239990234375 56.25,350.239990234375 63.33000183105469,261.44000244140625 66.16999816894531,261.44000244140625 59.08000183105469,350.239990234375 " opacity="0.6" fill="#fff" id="svg_171"/>
   <polygon points="107.22999572753906,350.239990234375 104.39999389648438,350.239990234375 111.49000549316406,261.44000244140625 114.32000732421875,261.44000244140625 107.22999572753906,350.239990234375 " fill="#5A4384" id="svg_172"/>
   <polygon points="107.22999572753906,350.239990234375 104.39999389648438,350.239990234375 111.49000549316406,261.44000244140625 114.32000732421875,261.44000244140625 107.22999572753906,350.239990234375 " opacity="0.6" fill="#fff" id="svg_173"/>
   <polygon points="111.58999633789062,350.239990234375 108.75,350.239990234375 101.66999816894531,261.44000244140625 104.5,261.44000244140625 111.58999633789062,350.239990234375 " fill="#5A4384" id="svg_174"/>
   <polygon points="111.58999633789062,350.239990234375 108.75,350.239990234375 101.66999816894531,261.44000244140625 104.5,261.44000244140625 111.58999633789062,350.239990234375 " opacity="0.7" fill="#fff" id="svg_175"/>
   <polygon points="159.74000549316406,350.239990234375 156.91000366210938,350.239990234375 149.82000732421875,261.44000244140625 152.64999389648438,261.44000244140625 159.74000549316406,350.239990234375 " fill="#5A4384" id="svg_176"/>
   <polygon points="159.74000549316406,350.239990234375 156.91000366210938,350.239990234375 149.82000732421875,261.44000244140625 152.64999389648438,261.44000244140625 159.74000549316406,350.239990234375 " opacity="0.7" fill="#fff" id="svg_177"/>
  </g>
 </g>
</svg>