<svg xmlns="http://www.w3.org/2000/svg" viewBox="0 0 500 500"><g id="freepik--background-simple--inject-320"><path d="M378.77,184.91c-29.42-63.58-80.37-4.29-116.1-49.8C241.08,107.62,241.84,82,211.62,68.39c-21-9.5-44.27-5.88-66.74-17.41C106.47,31.28,58.05,22.43,44.44,90.25c-5.67,28.29-3.85,67,20,99.12,20.32,27.33,47.6,14.17,69.12,35.23,41.15,40.26,10.18,129.91,69.83,153.69,52.4,20.89,74.53-56.31,127.91-33.22,40,17.3,105.62,64,128.11-22.07,9.59-36.69-6.66-64.31-27.42-81.39C403.36,218,398.08,226.63,378.77,184.91Z" style="fill:#FD435B"></path><path d="M378.77,184.91c-29.42-63.58-80.37-4.29-116.1-49.8C241.08,107.62,241.84,82,211.62,68.39c-21-9.5-44.27-5.88-66.74-17.41C106.47,31.28,58.05,22.43,44.44,90.25c-5.67,28.29-3.85,67,20,99.12,20.32,27.33,47.6,14.17,69.12,35.23,41.15,40.26,10.18,129.91,69.83,153.69,52.4,20.89,74.53-56.31,127.91-33.22,40,17.3,105.62,64,128.11-22.07,9.59-36.69-6.66-64.31-27.42-81.39C403.36,218,398.08,226.63,378.77,184.91Z" style="fill:#fff;opacity:0.9"></path></g><g id="freepik--Shadow--inject-320"><ellipse id="freepik--path--inject-320" cx="250" cy="416.24" rx="193.89" ry="11.32" style="fill:#f5f5f5"></ellipse></g><g id="freepik--Shop--inject-320"><rect x="97.89" y="107.08" width="304.22" height="306.24" style="fill:#FD435B"></rect><rect x="174.78" y="138.08" width="150.44" height="34.33" rx="3.24" style="fill:#fff"></rect><rect x="180.66" y="142.53" width="138.67" height="25.44" rx="1.61" style="fill:#FD435B"></rect><path d="M187.24,160.14l8-.5a6.09,6.09,0,0,0,1,3,4.46,4.46,0,0,0,3.71,1.65,4.14,4.14,0,0,0,2.78-.84,2.54,2.54,0,0,0,1-2,2.49,2.49,0,0,0-.92-1.89c-.62-.56-2.06-1.09-4.31-1.58-3.69-.83-6.31-1.93-7.89-3.3a6.67,6.67,0,0,1-2.37-5.26,7.16,7.16,0,0,1,1.21-4,8.12,8.12,0,0,1,3.66-2.93,17.11,17.11,0,0,1,6.69-1.07c3.47,0,6.13.65,8,1.94a8.42,8.42,0,0,1,3.26,6.17l-7.93.47a3.7,3.7,0,0,0-4.12-3.51,3.38,3.38,0,0,0-2.2.62,1.91,1.91,0,0,0-.75,1.51,1.5,1.5,0,0,0,.62,1.17,6.78,6.78,0,0,0,2.82,1,35.25,35.25,0,0,1,7.89,2.4,8.26,8.26,0,0,1,3.47,3,7.71,7.71,0,0,1,1.09,4,8.66,8.66,0,0,1-1.45,4.82,9,9,0,0,1-4.05,3.35,16.32,16.32,0,0,1-6.54,1.14q-6.94,0-9.62-2.67A10.5,10.5,0,0,1,187.24,160.14Z" style="fill:#fff"></path><path d="M219.6,141.94H228v9.52h9.18v-9.52h8.45v27.2h-8.45v-11H228v11H219.6Z" style="fill:#fff"></path><path d="M253.58,155.56q0-6.66,3.71-10.37t10.34-3.72q6.8,0,10.46,3.65t3.68,10.22a16.78,16.78,0,0,1-1.61,7.82,11.48,11.48,0,0,1-4.64,4.75A15.32,15.32,0,0,1,268,169.6a17.35,17.35,0,0,1-7.61-1.46,11.52,11.52,0,0,1-4.89-4.64A15.4,15.4,0,0,1,253.58,155.56Zm8.41,0q0,4.11,1.53,5.91a5.8,5.8,0,0,0,8.36,0q1.49-1.76,1.48-6.33c0-2.56-.51-4.43-1.55-5.61a5.29,5.29,0,0,0-4.2-1.77,5.11,5.11,0,0,0-4.08,1.8C262.5,150.84,262,152.82,262,155.6Z" style="fill:#fff"></path><path d="M289.68,141.94h14q4.56,0,6.84,2.17a8.17,8.17,0,0,1,2.27,6.18,8.41,8.41,0,0,1-2.48,6.44c-1.65,1.54-4.17,2.32-7.56,2.32h-4.6v10.09h-8.44Zm8.44,11.6h2.06a5.29,5.29,0,0,0,3.41-.85,2.7,2.7,0,0,0,1-2.16,3,3,0,0,0-.86-2.17c-.56-.6-1.63-.89-3.21-.89h-2.39Z" style="fill:#fff"></path><path d="M121.1,182.85H378.9a5.56,5.56,0,0,1,5.56,5.56v224.9a0,0,0,0,1,0,0H115.54a0,0,0,0,1,0,0V188.42A5.56,5.56,0,0,1,121.1,182.85Z" style="fill:#fff;opacity:0.5"></path><polygon points="412 208.95 412 226.49 376.57 230.7 343.68 234.62 317.38 237.74 293.64 240.56 291.1 233.85 288.38 226.68 288.03 237.46 287.91 241.24 284.48 241.65 258.18 244.78 225.29 248.69 198.98 251.81 166.09 255.72 139.78 258.85 106.89 262.76 88 265 88 247.47 123.43 243.26 156.32 239.35 182.61 236.22 205.69 233.48 215.52 232.32 241.82 229.19 241.82 229.18 274.71 225.28 301.02 222.14 333.91 218.23 360.22 215.11 393.11 211.2 412 208.95" style="fill:#FD435B;opacity:0.4"></polygon><polygon points="412 372.64 88 297.46 88 279.93 412 355.1 412 372.64" style="fill:#FD435B;opacity:0.4"></polygon><path d="M82.56,107.08H93.4a4.49,4.49,0,0,1,4.49,4.49V413.32a0,0,0,0,1,0,0H82.56a0,0,0,0,1,0,0V107.08A0,0,0,0,1,82.56,107.08Z" transform="translate(180.44 520.4) rotate(180)" style="fill:#263238"></path><path d="M406.6,107.08h10.84a0,0,0,0,1,0,0V413.32a0,0,0,0,1,0,0H402.11a0,0,0,0,1,0,0V111.58A4.49,4.49,0,0,1,406.6,107.08Z" transform="translate(819.56 520.4) rotate(180)" style="fill:#263238"></path><polygon points="319.81 182.85 285.35 182.85 225.48 413.32 259.93 413.32 319.81 182.85" style="fill:#fff;opacity:0.30000000000000004"></polygon><polygon points="345.19 182.85 330.5 182.85 270.62 413.32 285.32 413.32 345.19 182.85" style="fill:#fff;opacity:0.30000000000000004"></polygon><polygon points="224.03 182.85 209.33 182.85 149.45 413.32 164.15 413.32 224.03 182.85" style="fill:#fff;opacity:0.30000000000000004"></polygon><rect x="244.67" y="179.35" width="10.67" height="233.97" style="fill:#FD435B"></rect><path d="M437.78,116.21l-42-55.55H104.23l-42,55.55c-4.8,7.16-2.66,13.24,5,13.24s17.37-6.08,21.49-13.24h.36c-4.11,7.16-1.39,13.24,6.27,13.24s16.79-6.08,20.22-13.24h.36c-3.42,7.16-.12,13.24,7.54,13.24s16.2-6.08,19-13.24h.36c-2.74,7.16,1.15,13.24,8.81,13.24s15.62-6.08,17.69-13.24h.35c-2.05,7.16,2.42,13.24,10.08,13.24s15-6.08,16.42-13.24h.36c-1.37,7.16,3.68,13.24,11.34,13.24s14.46-6.08,15.15-13.24h.36c-.68,7.16,4.95,13.24,12.61,13.24s13.88-6.08,13.88-13.24h.36c0,7.16,6.22,13.24,13.88,13.24s13.29-6.08,12.61-13.24H277c.69,7.16,7.49,13.24,15.15,13.24s12.71-6.08,11.34-13.24h.36c1.38,7.16,8.76,13.24,16.42,13.24s12.13-6.08,10.08-13.24h.35c2.07,7.16,10,13.24,17.69,13.24s11.55-6.08,8.81-13.24h.36c2.75,7.16,11.29,13.24,19,13.24s11-6.08,7.54-13.24h.36c3.43,7.16,12.56,13.24,20.22,13.24s10.38-6.08,6.27-13.24h.36c4.12,7.16,13.83,13.24,21.49,13.24S442.58,123.37,437.78,116.21Z" style="fill:#FD435B"></path><path d="M437.78,116.21l-42-55.55H104.23l-42,55.55c-4.8,7.16-2.66,13.24,5,13.24s17.37-6.08,21.49-13.24h.36c-4.11,7.16-1.39,13.24,6.27,13.24s16.79-6.08,20.22-13.24h.36c-3.42,7.16-.12,13.24,7.54,13.24s16.2-6.08,19-13.24h.36c-2.74,7.16,1.15,13.24,8.81,13.24s15.62-6.08,17.69-13.24h.35c-2.05,7.16,2.42,13.24,10.08,13.24s15-6.08,16.42-13.24h.36c-1.37,7.16,3.68,13.24,11.34,13.24s14.46-6.08,15.15-13.24h.36c-.68,7.16,4.95,13.24,12.61,13.24s13.88-6.08,13.88-13.24h.36c0,7.16,6.22,13.24,13.88,13.24s13.29-6.08,12.61-13.24H277c.69,7.16,7.49,13.24,15.15,13.24s12.71-6.08,11.34-13.24h.36c1.38,7.16,8.76,13.24,16.42,13.24s12.13-6.08,10.08-13.24h.35c2.07,7.16,10,13.24,17.69,13.24s11.55-6.08,8.81-13.24h.36c2.75,7.16,11.29,13.24,19,13.24s11-6.08,7.54-13.24h.36c3.43,7.16,12.56,13.24,20.22,13.24s10.38-6.08,6.27-13.24h.36c4.12,7.16,13.83,13.24,21.49,13.24S442.58,123.37,437.78,116.21Z" style="fill:#fff;opacity:0.8"></path><g style="opacity:0.2"><polygon points="104.23 60.66 124.8 60.66 88.71 116.21 62.22 116.21 104.23 60.66" style="fill:#FD435B"></polygon><polygon points="145.92 60.66 166.49 60.66 142.41 116.21 115.92 116.21 145.92 60.66" style="fill:#FD435B"></polygon><polygon points="187.61 60.66 208.17 60.66 196.12 116.21 169.62 116.21 187.61 60.66" style="fill:#FD435B"></polygon><polygon points="229.3 60.66 249.86 60.66 249.82 116.21 223.33 116.21 229.3 60.66" style="fill:#FD435B"></polygon><polygon points="270.98 60.66 291.55 60.66 303.52 116.21 277.03 116.21 270.98 60.66" style="fill:#FD435B"></polygon><polygon points="312.67 60.66 333.24 60.66 357.23 116.21 330.74 116.21 312.67 60.66" style="fill:#FD435B"></polygon><polygon points="354.36 60.66 374.92 60.66 410.93 116.21 384.44 116.21 354.36 60.66" style="fill:#FD435B"></polygon><path d="M384.44,116.21c3.43,7.16,12.56,13.24,20.22,13.24s10.38-6.08,6.27-13.24" style="fill:#FD435B"></path><path d="M330.73,116.21c2.07,7.16,10,13.24,17.69,13.24s11.55-6.08,8.81-13.24" style="fill:#FD435B"></path><path d="M277,116.21c.69,7.16,7.49,13.24,15.15,13.24s12.71-6.08,11.34-13.24" style="fill:#FD435B"></path><path d="M223.33,116.21c-.68,7.16,4.95,13.24,12.61,13.24s13.88-6.08,13.88-13.24" style="fill:#FD435B"></path><path d="M169.62,116.21c-2.05,7.16,2.42,13.24,10.08,13.24s15-6.08,16.42-13.24" style="fill:#FD435B"></path><path d="M115.92,116.21c-3.42,7.16-.12,13.24,7.54,13.24s16.2-6.08,19-13.24" style="fill:#FD435B"></path><path d="M62.22,116.21c-4.8,7.16-2.66,13.24,5,13.24s17.37-6.08,21.49-13.24" style="fill:#FD435B"></path></g><polygon points="419.83 366.55 80.17 291.37 80.17 273.83 419.83 349.01 419.83 366.55" style="fill:#FD435B"></polygon><polygon points="419.83 366.55 80.17 291.37 80.17 273.83 419.83 349.01 419.83 366.55" style="fill:#fff;opacity:0.4"></polygon><g style="opacity:0.6000000000000001"><polygon points="134.46 303.38 99.98 295.75 117.31 282.05 151.79 289.68 134.46 303.38" style="fill:#FD435B"></polygon><polygon points="196.51 317.12 162.04 309.49 179.37 295.79 213.85 303.42 196.51 317.12" style="fill:#FD435B"></polygon><polygon points="258.57 330.85 224.09 323.22 241.43 309.52 275.91 317.15 258.57 330.85" style="fill:#FD435B"></polygon><polygon points="320.63 344.59 286.15 336.96 303.48 323.26 337.96 330.89 320.63 344.59" style="fill:#FD435B"></polygon><polygon points="382.69 358.32 348.21 350.69 365.54 336.99 400.02 344.62 382.69 358.32" style="fill:#FD435B"></polygon></g><polygon points="419.83 202.86 419.83 220.4 382.69 224.61 348.21 228.52 320.64 231.65 295.75 234.46 293.09 227.75 290.24 220.58 289.87 231.37 289.74 235.15 286.15 235.56 258.57 238.68 224.09 242.59 196.52 245.72 162.03 249.63 134.45 252.75 99.98 256.66 80.17 258.91 80.17 241.38 117.31 237.17 151.79 233.25 179.35 230.13 203.54 227.38 213.85 226.22 241.43 223.09 241.43 223.09 275.9 219.18 303.48 216.05 337.97 212.14 365.55 209.01 400.02 205.1 419.83 202.86" style="fill:#FD435B"></polygon><polygon points="419.83 202.86 419.83 220.4 382.69 224.61 348.21 228.52 320.64 231.65 295.75 234.46 293.09 227.75 290.24 220.58 289.87 231.37 289.74 235.15 286.15 235.56 258.57 238.68 224.09 242.59 196.52 245.72 162.03 249.63 134.45 252.75 99.98 256.66 80.17 258.91 80.17 241.38 117.31 237.17 151.79 233.25 179.35 230.13 203.54 227.38 213.85 226.22 241.43 223.09 241.43 223.09 275.9 219.18 303.48 216.05 337.97 212.14 365.55 209.01 400.02 205.1 419.83 202.86" style="fill:#fff;opacity:0.4"></polygon><g style="opacity:0.6000000000000001"><polygon points="134.45 252.75 99.97 256.67 117.31 237.16 151.79 233.25 134.45 252.75" style="fill:#FD435B"></polygon><polygon points="196.51 245.72 162.03 249.63 179.37 230.13 213.85 226.22 196.51 245.72" style="fill:#FD435B"></polygon><polygon points="258.57 238.68 224.09 242.59 241.43 223.09 275.91 219.18 258.57 238.68" style="fill:#FD435B"></polygon><polygon points="286.15 235.56 289.87 231.37 289.74 235.15 286.15 235.56" style="fill:#fff"></polygon><polygon points="337.97 212.14 320.64 231.65 295.75 234.46 293.09 227.75 303.48 216.05 337.97 212.14" style="fill:#FD435B"></polygon><polygon points="382.69 224.61 348.21 228.52 365.55 209.01 400.03 205.1 382.69 224.61" style="fill:#FD435B"></polygon></g></g><g id="freepik--Character--inject-320"><path d="M328.11,208.8c2-4.47,9.93-6.63,17.18-2.05s6.59,14.31,3.42,15.49c9.42,3.18,14.08,23.07,6.17,24.66,2.83,5.77,3.79,28.09-20,23.68s-16.83-24-16.83-24-6.75-15.81,3.84-22.8C317.38,220,320.34,206.59,328.11,208.8Z" style="fill:#263238"></path><polygon points="336.24 400.77 330.43 403.55 318.02 386.79 325.76 381.54 336.24 400.77" style="fill:#ff8b7b"></polygon><path d="M329.11,402l5.41-4.82a.49.49,0,0,1,.65,0l4.12,3.46a1,1,0,0,1-.08,1.49c-1.91,1.65-2.91,2.35-5.29,4.47-1.46,1.3-4.37,4.14-6.39,5.94s-3.76,0-3.07-.9c3.11-4.12,3.69-6.49,4.09-8.62A1.74,1.74,0,0,1,329.11,402Z" style="fill:#263238"></path><path d="M328,404.41a2.59,2.59,0,0,1-1.41.77.76.76,0,0,1-.66-.34.48.48,0,0,1-.06-.46c.33-.83,3.05-1.62,3.36-1.7a.14.14,0,0,1,.16.05.15.15,0,0,1,0,.17A11.48,11.48,0,0,1,328,404.41Zm-1.67-.17a.58.58,0,0,0-.18.23.19.19,0,0,0,0,.19.48.48,0,0,0,.43.22c.51,0,1.34-.68,2.26-1.79A8.7,8.7,0,0,0,326.32,404.24Z" style="fill:#FD435B"></path><path d="M329.34,402.93l0,0c-.79.27-2.77.3-3.13-.29-.08-.14-.12-.37.17-.68a1.14,1.14,0,0,1,.79-.38,3.81,3.81,0,0,1,2.24,1.1.16.16,0,0,1,0,.22Zm-2.74-.81-.06.06c-.2.21-.14.3-.12.33.21.35,1.65.43,2.52.24a3.1,3.1,0,0,0-1.82-.84A.83.83,0,0,0,326.6,402.12Z" style="fill:#FD435B"></path><path d="M318.76,244.41a82.37,82.37,0,0,1-3.38,11.49,52.51,52.51,0,0,1-2.43,5.59,28.78,28.78,0,0,1-3.48,5.44l-.27.33-.46.48a5.38,5.38,0,0,1-1.36.91,4.71,4.71,0,0,1-3.4.19,6.6,6.6,0,0,1-2.11-1.16,12.11,12.11,0,0,1-1.36-1.29,27.94,27.94,0,0,1-3.57-5.26,69.82,69.82,0,0,1-4.62-11,1.58,1.58,0,0,1,2.88-1.25l0,0c.91,1.64,1.85,3.32,2.82,4.94s1.94,3.23,3,4.73a24.17,24.17,0,0,0,3.28,4.05,6.37,6.37,0,0,0,.79.63c.24.15.45.22.44.18a.85.85,0,0,0-.58,0l-.18.09s0,0,0-.06l.17-.23a23.86,23.86,0,0,0,2.49-4.45c.71-1.65,1.37-3.36,2-5.11,1.18-3.48,2.21-7.17,3.08-10.71l0-.08a3.18,3.18,0,0,1,6.19,1.43Z" style="fill:#ff8b7b"></path><polygon points="346.24 411.83 340.01 412.05 333.44 389.92 342.03 388.88 346.24 411.83" style="fill:#ff8b7b"></polygon><path d="M339.59,410.06l7,0a.45.45,0,0,1,.47.42l.42,5.51a1.09,1.09,0,0,1-1.07,1.11c-2.43,0-3.6-.15-6.67-.13-1.89,0-4.66.23-7.27.25s-2.58-2.56-1.47-2.81c4.94-1.08,5.81-2.53,7.54-3.92A1.78,1.78,0,0,1,339.59,410.06Z" style="fill:#263238"></path><path d="M312.88,241.68C312,245.79,311,255.07,311,276l25,2.21c1.15-9.45,2.1-15.54,8.69-32.48a4.48,4.48,0,0,0-3.17-6c-1.61-.37-3.47-.75-5.36-1a79.89,79.89,0,0,0-11.34-1c-2.77,0-5.77.22-7.88.4A4.46,4.46,0,0,0,312.88,241.68Z" style="fill:#FD435B"></path><path d="M339.56,244.81c-.11,3,.52,7.57,1.89,9.5.44-1.25.91-2.57,1.43-4Z" style="opacity:0.2"></path><path d="M337.07,225.8c-1.31,3.61-3.12,10.28-1,12.95a85.66,85.66,0,0,1-12.69,6.61c-2.6-6.09,1.35-7.61,1.35-7.61,4.23-.62,4.62-3.67,4.38-6.58Z" style="fill:#ff8b7b"></path><path d="M334.8,228.54l-5.66,2.62a11.83,11.83,0,0,1,0,2.06c1.18.11,4.24-.79,5.4-2.69A2.85,2.85,0,0,0,334.8,228.54Z" style="opacity:0.2"></path><path d="M342.29,220.1c-2.05,5.81-2.79,8.32-6.65,10.5-5.8,3.29-12.49-.5-12.22-6.81.24-5.68,3.56-14.24,10-14.94A8.41,8.41,0,0,1,342.29,220.1Z" style="fill:#ff8b7b"></path><path d="M330.82,208.8c.7,3.51,5.17,5.59,8,5.23-1.33,1.66-2.8,8.71,2.39,9.7,5.69-2.51,6.25-9.09,3.11-13.48S332.57,205.7,330.82,208.8Z" style="fill:#263238"></path><path d="M330.82,208c-4.41,1-4.91,4.81-2.51,4.62C332.45,212.26,336.58,206.63,330.82,208Z" style="fill:#263238"></path><path d="M311,276s-13.18,55.8-12,69.89c1.35,16.47,19.37,43,19.37,43l8.27-7.51s-8.22-21.75-14.29-35.91c1.95-14.17,19.15-54.2,19.15-67.68Z" style="fill:#FD435B"></path><path d="M311,276s-13.18,55.8-12,69.89c1.35,16.47,19.37,43,19.37,43l8.27-7.51s-8.22-21.75-14.29-35.91c1.95-14.17,19.15-54.2,19.15-67.68Z" style="opacity:0.4"></path><polygon points="328.1 382.55 318.33 389.84 315.82 387.94 326.55 379.47 328.1 382.55" style="fill:#FD435B"></polygon><path d="M320.72,300.58c-7.26,10.05-7.62,28.54-7.16,38.93,2.49-9.54,7.71-23.8,11.87-36.64C325.34,297.94,324.11,295.87,320.72,300.58Z" style="opacity:0.4"></path><path d="M315.65,276.08s3.63,47.17,5.25,63.43c1.91,19.31,12,51,12,51l9.17-1.62s-5.07-25.74-6.59-43c.28-23,4.86-53.16.5-67.61Z" style="fill:#FD435B"></path><path d="M315.65,276.08s3.63,47.17,5.25,63.43c1.91,19.31,12,51,12,51l9.17-1.62s-5.07-25.74-6.59-43c.28-23,4.86-53.16.5-67.61Z" style="opacity:0.4"></path><polygon points="342.95 390.48 332.34 391.6 331.15 388.38 343.06 386.43 342.95 390.48" style="fill:#FD435B"></polygon><path d="M331.94,218.75c-.13.48-.5.8-.81.71s-.46-.55-.33-1,.51-.8.82-.71S332.08,218.27,331.94,218.75Z" style="fill:#263238"></path><path d="M326.5,217.2c-.14.48-.51.8-.82.71s-.46-.56-.32-1,.5-.8.81-.71S326.63,216.71,326.5,217.2Z" style="fill:#263238"></path><path d="M326.31,216.23l-1.07-.67S325.58,216.64,326.31,216.23Z" style="fill:#263238"></path><path d="M328.22,218.84a13.63,13.63,0,0,1-2.59,2.59,2.15,2.15,0,0,0,1.62.81Z" style="fill:#ff5652"></path><path d="M329.61,224.82a5.49,5.49,0,0,1-.83-.16.16.16,0,0,1-.1-.18.16.16,0,0,1,.19-.11,3.93,3.93,0,0,0,3.53-.6.15.15,0,0,1,.2.22A4.13,4.13,0,0,1,329.61,224.82Z" style="fill:#263238"></path><path d="M342.78,226a4.52,4.52,0,0,1-3.23,1.18c-1.58-.07-1.94-1.14-1.09-2.37s2.31-2.49,4-2.19C343.93,222.92,343.85,225,342.78,226Z" style="fill:#ff8b7b"></path><path d="M335.8,217.46a.28.28,0,0,1-.18-.14,2.34,2.34,0,0,0-1.76-1.19.3.3,0,0,1-.29-.31.31.31,0,0,1,.31-.28,2.93,2.93,0,0,1,2.24,1.48.31.31,0,0,1-.1.41A.29.29,0,0,1,335.8,217.46Z" style="fill:#263238"></path><path d="M325.45,214.66a.3.3,0,0,1-.16-.52,3,3,0,0,1,2.61-.67.3.3,0,0,1,.19.37.29.29,0,0,1-.36.2,2.3,2.3,0,0,0-2.05.55A.29.29,0,0,1,325.45,214.66Z" style="fill:#263238"></path><path d="M345.17,243.14c1.21,3.54,2.23,7,3.09,10.66.43,1.81.84,3.64,1.13,5.52a33.91,33.91,0,0,1,.49,6,14.21,14.21,0,0,1-.16,1.75,7.79,7.79,0,0,1-.24,1c-.06.2-.11.36-.19.57a4.42,4.42,0,0,1-1.77,2.14,5.11,5.11,0,0,1-1.5.59,6.48,6.48,0,0,1-2.26.06,18.75,18.75,0,0,1-5.9-2.12,59,59,0,0,1-9.31-6.23,1.58,1.58,0,0,1,1.7-2.65l0,0a103.29,103.29,0,0,0,9.59,4.36c.8.3,1.59.57,2.35.78a9.2,9.2,0,0,0,2.06.37.86.86,0,0,0,.43-.05s-.1,0-.24.09a1.23,1.23,0,0,0-.41.38.81.81,0,0,0-.11.2s0-.06,0-.09a1.41,1.41,0,0,0,.05-.3,9.13,9.13,0,0,0,0-.95,29.4,29.4,0,0,0-.68-4.81c-.37-1.68-.75-3.38-1.21-5.08-.91-3.38-1.94-6.83-3-10.16v0a3.18,3.18,0,0,1,6-2Z" style="fill:#ff8b7b"></path><path d="M336.16,410.78a.81.81,0,0,1-.13-.71.56.56,0,0,1,.32-.42c.75-.33,2.55.88,2.76,1a.14.14,0,0,1,.05.15.15.15,0,0,1-.12.12c-.82.2-2.27.45-2.82-.08Zm2.48-.06c-.74-.46-1.79-1-2.18-.8a.23.23,0,0,0-.14.19.51.51,0,0,0,.12.52C336.73,410.92,337.54,411,338.64,410.72Z" style="fill:#FD435B"></path><path d="M338.2,410.23a2.42,2.42,0,0,1-.69-1.68.58.58,0,0,1,.53-.41.72.72,0,0,1,.61.19c.63.59.52,2.38.51,2.46a.13.13,0,0,1-.08.12.14.14,0,0,1-.14,0A3.47,3.47,0,0,1,338.2,410.23Zm.3-1.61-.06-.07a.46.46,0,0,0-.39-.12c-.19,0-.23.11-.25.18-.11.42.52,1.43,1.08,1.89A3.52,3.52,0,0,0,338.5,408.62Z" style="fill:#FD435B"></path><path d="M336.55,276.8l.28,2.3c.05.19-.18.35-.47.32l-25.7-2.27c-.22,0-.39-.15-.38-.29l.14-2.27c0-.16.22-.28.47-.25l25.29,2.23C336.36,276.59,336.52,276.68,336.55,276.8Z" style="fill:#fff"></path><path d="M332.69,279.34l.68.06c.14,0,.25,0,.25-.13l.16-2.95c0-.09-.1-.17-.23-.18l-.68-.06c-.14,0-.25.05-.26.13l-.15,3C332.45,279.25,332.56,279.33,332.69,279.34Z" style="fill:#FD435B"></path><path d="M332.69,279.34l.68.06c.14,0,.25,0,.25-.13l.16-2.95c0-.09-.1-.17-.23-.18l-.68-.06c-.14,0-.25.05-.26.13l-.15,3C332.45,279.25,332.56,279.33,332.69,279.34Z" style="opacity:0.4"></path><path d="M312.52,277.56l.68.06c.14,0,.25-.05.26-.14l.15-3c0-.08-.1-.16-.23-.18l-.68-.06c-.14,0-.25,0-.25.14l-.16,2.95C312.28,277.47,312.39,277.55,312.52,277.56Z" style="fill:#FD435B"></path><path d="M312.52,277.56l.68.06c.14,0,.25-.05.26-.14l.15-3c0-.08-.1-.16-.23-.18l-.68-.06c-.14,0-.25,0-.25.14l-.16,2.95C312.28,277.47,312.39,277.55,312.52,277.56Z" style="opacity:0.4"></path><path d="M322.61,278.45l.68.06c.13,0,.25-.05.25-.13l.16-3c0-.08-.1-.16-.24-.17l-.68-.06c-.13,0-.25,0-.25.13l-.16,2.95C322.37,278.36,322.47,278.44,322.61,278.45Z" style="fill:#FD435B"></path><path d="M322.61,278.45l.68.06c.13,0,.25-.05.25-.13l.16-3c0-.08-.1-.16-.24-.17l-.68-.06c-.13,0-.25,0-.25.13l-.16,2.95C322.37,278.36,322.47,278.44,322.61,278.45Z" style="opacity:0.4"></path><path d="M293.54,246l-2-2.9a1.83,1.83,0,0,0-2.16-.69l-1.92.72a1.83,1.83,0,0,0-1.06,2.39l.8,2a3,3,0,0,0,1.38,1.53l4.75,2.5,2.52-.52C296.49,248.44,293.54,246,293.54,246Z" style="fill:#ff8b7b"></path><path d="M296,250.35a8.66,8.66,0,0,0-.68-5c-.18-.56-.61-2.48-.94-2.59-.78-.27-1,1.08-.82,1.9a1.05,1.05,0,0,1-.64,1.18S294.7,250.2,296,250.35Z" style="fill:#ff8b7b"></path><path d="M288.88,243.14a1,1,0,0,1,.65.48l2.92-14.79a21.14,21.14,0,0,1,.28,9L291,239l-1.26,6.39h0c-.22,1.1-1,1.88-1.69,1.73s-1.12-1.14-.9-2.24S288.16,243,288.88,243.14Zm-.68,3.43c.51.1,1.06-.46,1.22-1.25s-.14-1.52-.65-1.62-1.06.45-1.22,1.25S287.68,246.47,288.2,246.57Z" style="fill:#263238"></path><path d="M292.94,241.83a1.07,1.07,0,0,0-.42.7L284.13,230a21.13,21.13,0,0,0,3.23,8.44l2,.4,3.62,5.4h0c.63.93,1.62,1.36,2.23,1s.58-1.49,0-2.42S293.55,241.42,292.94,241.83Zm1.95,2.91c-.43.29-1.16,0-1.6-.69s-.46-1.45,0-1.75,1.15,0,1.6.69S295.33,244.44,294.89,244.74Z" style="fill:#263238"></path><path d="M331.75,217.78l-1.06-.66S331,218.19,331.75,217.78Z" style="fill:#263238"></path><path d="M332.14,261.72l-2.23-4.81a3.14,3.14,0,0,0-1.56-1.55l-1.9-.88a1.83,1.83,0,0,0-2.45.94l-.81,1.88a1.83,1.83,0,0,0,.57,2.19l2.8,2.1s2.31,3.07,4.92,2.61Z" style="fill:#ff8b7b"></path></g></svg>