<svg xmlns="http://www.w3.org/2000/svg" viewBox="0 0 500 500"><g id="freepik--background-simple--inject-67"><path d="M359.87,72c-46.42-8.87-97.44,6.56-129,39-11.44,11.76-20.44,25.5-33,36.22-26.51,22.59-75,27.53-102.36,49.23-22,17.44-34.26,43-42.41,68.59-9.32,29.21-13.44,63,5.24,88.14,11.42,15.39,30.05,25.3,49.51,30.64s49.4,8.12,69.67,9.3l86.34,5.05c24.37,1.42,48.91,2.84,73.16.2s48.46-9.6,67.69-23.39c21.21-15.2,35.07-37.88,41.9-61.75s7.05-48.95,4.59-73.52a350.2,350.2,0,0,0-20.37-87.29c-7.56-20.27-15.51-42.7-31.48-58.84C388,82.09,376.59,75.16,359.87,72Z" style="fill:#407BFF"></path><path d="M359.87,72c-46.42-8.87-97.44,6.56-129,39-11.44,11.76-20.44,25.5-33,36.22-26.51,22.59-75,27.53-102.36,49.23-22,17.44-34.26,43-42.41,68.59-9.32,29.21-13.44,63,5.24,88.14,11.42,15.39,30.05,25.3,49.51,30.64s49.4,8.12,69.67,9.3l86.34,5.05c24.37,1.42,48.91,2.84,73.16.2s48.46-9.6,67.69-23.39c21.21-15.2,35.07-37.88,41.9-61.75s7.05-48.95,4.59-73.52a350.2,350.2,0,0,0-20.37-87.29c-7.56-20.27-15.51-42.7-31.48-58.84C388,82.09,376.59,75.16,359.87,72Z" style="fill:#fff;opacity:0.9"></path></g></svg>